<svg width="20" height="20" viewBox="0 0 20 20" fill="none" xmlns="http://www.w3.org/2000/svg">
<path d="M17.6562 0H2.34375C1.05133 0 0 1.05133 0 2.34375V17.6562C0 18.9487 1.05133 20 2.34375 20H17.6562C18.9487 20 20 18.9487 20 17.6562V2.34375C20 1.05133 18.9487 0 17.6562 0ZM18.4375 17.6562C18.4375 18.087 18.087 18.4375 17.6562 18.4375H13.0469V12.7344H15.5479L15.8394 10.3125H13.0469V7.69531C13.0469 7.02728 13.5507 6.52344 14.2188 6.52344H15.9766V4.25781C15.5139 4.1925 14.6214 4.10156 14.2188 4.10156C13.3076 4.10156 12.3944 4.48593 11.7133 5.15594C11.0115 5.84625 10.625 6.75049 10.625 7.70218V10.3125H8.08594V12.7344H10.625V18.4375H2.34375C1.91299 18.4375 1.5625 18.087 1.5625 17.6562V2.34375C1.5625 1.91299 1.91299 1.5625 2.34375 1.5625H17.6562C18.087 1.5625 18.4375 1.91299 18.4375 2.34375V17.6562Z" fill="white"/>
</svg>
