<svg width="22" height="20" viewBox="0 0 22 20" fill="none" xmlns="http://www.w3.org/2000/svg">
<path d="M22 6C22 5.89631 21.9746 5.79004 21.9319 5.70187L19.7101 1.10556C19.3805 0.423644 18.7177 0 17.9807 0C14.8314 0 6.81991 0 4.01934 0C3.28225 0 2.61955 0.423644 2.28985 1.10556L0.0680195 5.70187C0.023332 5.79436 0 5.90053 0 6C0 6.00462 0.000558594 6.02693 0.000773437 6.03156C0.0105273 7.10684 0.514465 8.062 1.28906 8.66484V18C1.28906 19.1028 2.15647 20 3.22266 20H18.7773C19.8435 20 20.7109 19.1028 20.7109 18V8.66484C21.5072 8.04516 22 7.06827 22 6ZM18.7773 8C17.9371 8 17.2207 7.44258 16.9546 6.66667H20.6001C20.334 7.44258 19.6176 8 18.7773 8ZM1.39992 6.66667H5.04535C4.77928 7.44258 4.06287 8 3.22261 8C2.38236 8 1.66598 7.44258 1.39992 6.66667ZM18.5572 1.70187L20.3126 5.33333H16.6595L15.6927 1.33333H17.9807C18.2264 1.33333 18.4473 1.47453 18.5572 1.70187ZM15.3308 5.33333H11.6445V1.33333H14.3639L15.3308 5.33333ZM15.4438 6.66667C15.1778 7.44258 14.4613 8 13.6211 8C12.7794 8 12.0406 7.43467 11.7624 6.66667H15.4438ZM10.3555 1.33333V5.33333H6.6263L7.59309 1.33333H10.3555ZM10.2376 6.66667C9.95938 7.43467 9.22058 8 8.37891 8C7.53865 8 6.82223 7.44258 6.55617 6.66667H10.2376ZM3.44287 1.70187C3.55274 1.47453 3.77364 1.33333 4.01934 1.33333H6.26433L5.29753 5.33333H1.68743L3.44287 1.70187ZM19.4219 18C19.4219 18.3676 19.1327 18.6667 18.7773 18.6667H3.22266C2.86726 18.6667 2.57812 18.3676 2.57812 18V9.26627C2.78644 9.31018 3.00197 9.33333 3.22266 9.33333C4.27573 9.33333 5.21232 8.80809 5.80078 7.99769C6.38924 8.80809 7.32583 9.33333 8.37891 9.33333C9.23957 9.33333 10.0546 8.98849 10.674 8.36236C10.793 8.242 10.9017 8.11409 11 7.97987C11.0983 8.11409 11.207 8.242 11.326 8.3624C11.9454 8.98849 12.7604 9.33333 13.6211 9.33333C14.6742 9.33333 15.6108 8.80809 16.1992 7.99769C16.7876 8.80809 17.7243 9.33333 18.7773 9.33333C18.998 9.33333 19.2136 9.31018 19.4219 9.26627V18Z" fill="white"/>
<path d="M17.4453 13.3329H15.5117C15.1558 13.3329 14.8672 13.6314 14.8672 13.9996C14.8672 14.3678 15.1558 14.6663 15.5117 14.6663H16.6899C16.4239 15.4422 15.7074 15.9996 14.8672 15.9996C13.801 15.9996 12.9336 15.1024 12.9336 13.9996C12.9336 12.8968 13.801 11.9996 14.8672 11.9996C15.3837 11.9996 15.8692 12.2076 16.2345 12.5854C16.4861 12.8457 16.8942 12.8457 17.1459 12.5854C17.3977 12.3251 17.3976 11.903 17.1459 11.6426C16.5373 11.013 15.728 10.6663 14.8672 10.6663C13.0902 10.6663 11.6445 12.1616 11.6445 13.9996C11.6445 15.8376 13.0902 17.3329 14.8672 17.3329C16.6442 17.3329 18.0898 15.8376 18.0898 13.9996C18.0898 13.6314 17.8013 13.3329 17.4453 13.3329Z" fill="white"/>
</svg>
