<svg width="20" height="20" viewBox="0 0 20 20" fill="none" xmlns="http://www.w3.org/2000/svg">
<g clip-path="url(#clip0_71_12)">
<path d="M10.1968 20.0002C10.1306 20.0002 10.0644 20.0002 9.99771 19.9999C8.43002 20.0037 6.98151 19.9639 5.57281 19.8781C4.28131 19.7995 3.10242 19.3532 2.16339 18.5875C1.25732 17.8487 0.63858 16.8497 0.324402 15.6186C0.0509644 14.5469 0.0364685 13.4948 0.022583 12.4771C0.0125122 11.747 0.00213623 10.8818 0 10.002C0.00213623 9.11854 0.0125122 8.25336 0.022583 7.52323C0.0364685 6.50577 0.0509644 5.45368 0.324402 4.38175C0.63858 3.15067 1.25732 2.15168 2.16339 1.41285C3.10242 0.647161 4.28131 0.200841 5.57297 0.122258C6.98166 0.0366565 8.43048 -0.00332149 10.0015 0.000493208C11.5697 -0.00286373 13.0177 0.0366565 14.4264 0.122258C15.7179 0.200841 16.8968 0.647161 17.8358 1.41285C18.7421 2.15168 19.3607 3.15067 19.6748 4.38175C19.9483 5.45353 19.9628 6.50577 19.9767 7.52323C19.9867 8.25336 19.9973 9.11854 19.9992 9.99836V10.002C19.9973 10.8818 19.9867 11.747 19.9767 12.4771C19.9628 13.4946 19.9484 14.5467 19.6748 15.6186C19.3607 16.8497 18.7421 17.8487 17.8358 18.5875C16.8968 19.3532 15.7179 19.7995 14.4264 19.8781C13.0774 19.9602 11.6916 20.0002 10.1968 20.0002ZM9.99771 18.4374C11.5399 18.441 12.9559 18.4021 14.3315 18.3185C15.3081 18.2592 16.1548 17.9422 16.8484 17.3766C17.4896 16.8537 17.9312 16.1322 18.1609 15.2323C18.3885 14.3401 18.4016 13.3821 18.4143 12.4558C18.4242 11.7305 18.4346 10.8715 18.4367 10.0002C18.4346 9.12876 18.4242 8.26984 18.4143 7.54459C18.4016 6.61823 18.3885 5.66028 18.1609 4.76795C17.9312 3.86799 17.4896 3.14655 16.8484 2.62363C16.1548 2.05814 15.3081 1.74122 14.3315 1.68186C12.9559 1.59809 11.5399 1.55948 10.0014 1.56284C8.45947 1.55918 7.0433 1.59809 5.66772 1.68186C4.69116 1.74122 3.84445 2.05814 3.15079 2.62363C2.50961 3.14655 2.06802 3.86799 1.83838 4.76795C1.61072 5.66028 1.5976 6.61808 1.58493 7.54459C1.57501 8.27045 1.56464 9.12998 1.5625 10.002C1.56464 10.8702 1.57501 11.7299 1.58493 12.4558C1.5976 13.3821 1.61072 14.3401 1.83838 15.2323C2.06802 16.1322 2.50961 16.8537 3.15079 17.3766C3.84445 17.9421 4.69116 18.259 5.66772 18.3184C7.0433 18.4021 8.45978 18.4412 9.99771 18.4374ZM9.96048 14.883C7.26822 14.883 5.07767 12.6926 5.07767 10.0002C5.07767 7.30778 7.26822 5.11738 9.96048 5.11738C12.6529 5.11738 14.8433 7.30778 14.8433 10.0002C14.8433 12.6926 12.6529 14.883 9.96048 14.883ZM9.96048 6.67988C8.12973 6.67988 6.64017 8.16944 6.64017 10.0002C6.64017 11.8309 8.12973 13.3205 9.96048 13.3205C11.7914 13.3205 13.2808 11.8309 13.2808 10.0002C13.2808 8.16944 11.7914 6.67988 9.96048 6.67988ZM15.3902 3.55488C14.743 3.55488 14.2183 4.07947 14.2183 4.72675C14.2183 5.37403 14.743 5.89863 15.3902 5.89863C16.0374 5.89863 16.562 5.37403 16.562 4.72675C16.562 4.07947 16.0374 3.55488 15.3902 3.55488Z" fill="white"/>
</g>
<defs>
<clipPath id="clip0_71_12">
<rect width="20" height="20" fill="white"/>
</clipPath>
</defs>
</svg>
