<svg width="20" height="20" viewBox="0 0 20 20" fill="none" xmlns="http://www.w3.org/2000/svg">
<g clip-path="url(#clip0_59_61)">
<path d="M19.2336 4.08383C18.4662 3.02785 17.1223 2.07473 15.4494 1.40012C13.7855 0.729183 11.8537 0.358168 10.0096 0.355512C8.16531 0.350902 6.23105 0.71809 4.5648 1.38383C2.88902 2.0534 1.54187 3.00239 0.771674 4.05586C0.0319082 5.0677 -0.181295 6.15828 0.155072 7.20973C0.373275 7.89184 1.0098 8.35078 1.73937 8.35184L4.23745 8.35418C4.23828 8.35418 4.2391 8.35418 4.23995 8.35418C4.73808 8.35414 5.20609 8.1361 5.52413 7.75567C5.83882 7.3793 5.96917 6.88742 5.88179 6.4061C5.87925 6.39199 5.87613 6.37793 5.87257 6.36399L5.74113 5.85297C6.46902 5.50567 8.11824 4.83465 10.0019 4.84531C11.8841 4.85496 13.5322 5.52559 14.261 5.87305L14.1275 6.38117C14.1237 6.39555 14.1205 6.41004 14.1177 6.42461C14.029 6.90567 14.1579 7.39789 14.4715 7.77516C14.789 8.15719 15.2574 8.37664 15.7568 8.37738L18.2549 8.37973C18.2557 8.37973 18.2566 8.37973 18.2574 8.37973C18.9855 8.37969 19.6223 7.92285 19.8421 7.24219C20.1816 6.19098 19.9712 5.09883 19.2336 4.08383ZM18.7062 6.87524C18.6471 7.05836 18.4626 7.1861 18.2569 7.1861C18.2568 7.1861 18.2565 7.1861 18.2562 7.1861L15.7582 7.18375C15.6143 7.18356 15.4798 7.12102 15.3894 7.01215C15.3402 6.95297 15.2634 6.82989 15.2885 6.65871L15.5371 5.71328C15.6052 5.45418 15.4923 5.18153 15.261 5.04629C15.1646 4.98996 12.8677 3.66629 10.008 3.65157C9.99206 3.65149 9.97663 3.65145 9.96078 3.65145C7.11949 3.65145 4.83886 4.96934 4.74265 5.02574C4.51285 5.16051 4.40019 5.43121 4.46656 5.68926L4.71015 6.63621C4.73503 6.80774 4.65781 6.93082 4.60839 6.98996C4.51781 7.09832 4.38351 7.16043 4.2396 7.16043C4.23937 7.16043 4.23913 7.16043 4.2389 7.16043L1.74078 7.15809C1.53519 7.15778 1.35062 7.02942 1.29195 6.8459C1.07351 6.16305 1.22265 5.46129 1.73523 4.7602C3.09683 2.89785 6.56558 1.54899 9.98921 1.54899C9.99531 1.54899 10.0018 1.54899 10.0079 1.54899C13.435 1.55391 16.9089 2.91504 18.2682 4.78543C18.7794 5.48922 18.9269 6.19231 18.7062 6.87524Z" fill="white"/>
<path d="M15.6483 10.9301L13.7854 8.97405C13.6727 8.85577 13.5165 8.78886 13.3532 8.78886H12.1493V7.97546C12.1493 7.64585 11.8821 7.37866 11.5525 7.37866C11.2229 7.37866 10.9557 7.64585 10.9557 7.97546V8.78886H9.0447V7.97546C9.0447 7.64585 8.77751 7.37866 8.4479 7.37866C8.11829 7.37866 7.8511 7.64585 7.8511 7.97546V8.78886H6.64724C6.48392 8.78886 6.3277 8.85581 6.21509 8.97405L4.3522 10.9301C2.89157 12.4638 2.08716 14.4748 2.08716 16.5927V19.0479C2.08716 19.3775 2.35435 19.6447 2.68395 19.6447H17.3165C17.6461 19.6447 17.9132 19.3775 17.9132 19.0479V16.5927C17.9133 14.4748 17.1089 12.4638 15.6483 10.9301ZM3.28075 18.4511V16.5927C3.28075 14.7826 3.96821 13.064 5.21657 11.7532L6.90306 9.98237H13.0974L14.7839 11.7532C16.0322 13.0639 16.7197 14.7826 16.7197 16.5927V18.4511H3.28075Z" fill="white"/>
<path d="M10.0004 11.2163C8.27809 11.2163 6.87695 12.6175 6.87695 14.3397C6.87695 16.062 8.27813 17.4631 10.0004 17.4631C11.7226 17.4631 13.1238 16.062 13.1238 14.3397C13.1238 12.6174 11.7226 11.2163 10.0004 11.2163ZM10.0004 16.2695C8.93621 16.2695 8.07055 15.4038 8.07055 14.3397C8.07055 13.2756 8.93625 12.4099 10.0004 12.4099C11.0645 12.4099 11.9302 13.2756 11.9302 14.3397C11.9302 15.4038 11.0645 16.2695 10.0004 16.2695Z" fill="white"/>
</g>
<defs>
<clipPath id="clip0_59_61">
<rect width="20" height="20" fill="white"/>
</clipPath>
</defs>
</svg>
