<svg width="600" height="600" viewBox="0 0 600 600" fill="none" xmlns="http://www.w3.org/2000/svg">
<path d="M300 424.98C360.508 424.98 409.559 418.855 409.559 411.3C409.559 403.745 360.508 397.62 300 397.62C239.492 397.62 190.44 403.745 190.44 411.3C190.44 418.855 239.492 424.98 300 424.98Z" fill="#212552"/>
<path d="M275.7 401.64V397.2C275.7 395.22 274.08 393.6 272.1 393.6H232.5C230.52 393.6 228.9 395.22 228.9 397.2V410.4C228.9 412.38 230.52 414 232.5 414H258.84C261.72 414 264.48 412.86 266.52 410.82L275.7 401.64Z" fill="#92D6E9"/>
<path opacity="0.3" d="M272.1 393.6H232.5C230.52 393.6 228.9 395.22 228.9 397.2V409.44H267.9L275.7 401.64V397.2C275.7 395.22 274.08 393.6 272.1 393.6Z" fill="#0A1E2B" stroke="#0A1E2B" stroke-miterlimit="10" stroke-linecap="round" stroke-linejoin="round"/>
<path d="M324.3 401.64V397.2C324.3 395.22 325.92 393.6 327.9 393.6H367.5C369.48 393.6 371.1 395.22 371.1 397.2V410.4C371.1 412.38 369.48 414 367.5 414H341.16C338.28 414 335.52 412.86 333.48 410.82L324.3 401.64Z" fill="#92D6E9"/>
<path opacity="0.3" d="M367.5 393.6H327.9C325.92 393.6 324.3 395.22 324.3 397.2V401.64L332.1 409.44H371.1V397.2C371.1 395.22 369.48 393.6 367.5 393.6Z" fill="#0A1E2B" stroke="#0A1E2B" stroke-miterlimit="10" stroke-linecap="round" stroke-linejoin="round"/>
<path d="M275.7 401.64V397.2C275.7 395.22 274.08 393.6 272.1 393.6H232.5C230.52 393.6 228.9 395.22 228.9 397.2V410.4C228.9 412.38 230.52 414 232.5 414H258.84C261.72 414 264.48 412.86 266.52 410.82L275.7 401.64Z" stroke="#212552" stroke-miterlimit="10" stroke-linecap="round" stroke-linejoin="round"/>
<path d="M324.3 401.64V397.2C324.3 395.22 325.92 393.6 327.9 393.6H367.5C369.48 393.6 371.1 395.22 371.1 397.2V410.4C371.1 412.38 369.48 414 367.5 414H341.16C338.28 414 335.52 412.86 333.48 410.82L324.3 401.64Z" stroke="#212552" stroke-miterlimit="10" stroke-linecap="round" stroke-linejoin="round"/>
<path d="M378 401.7H222C208.74 401.7 198 390.96 198 377.7V221.7C198 208.44 208.74 197.7 222 197.7H378C391.26 197.7 402 208.44 402 221.7V377.7C402 390.96 391.26 401.7 378 401.7Z" fill="#CBEDF9"/>
<path d="M378 197.7H222C208.74 197.7 198 208.44 198 221.7V235.5C198 222.24 208.74 211.5 222 211.5H378C391.26 211.5 402 222.24 402 235.5V221.7C402 208.44 391.26 197.7 378 197.7Z" fill="#E8F9FF"/>
<path d="M378 387.9H222C208.74 387.9 198 377.16 198 363.9V377.7C198 390.96 208.74 401.7 222 401.7H378C391.26 401.7 402 390.96 402 377.7V363.9C402 377.16 391.26 387.9 378 387.9Z" fill="#92D6E9"/>
<path opacity="0.23" d="M221.22 377.16L243.06 401.7H283.86L310.2 401.52L304.98 362.46L221.22 377.16Z" fill="#0A1E2B" stroke="#0A1E2B" stroke-miterlimit="10" stroke-linecap="round" stroke-linejoin="round"/>
<path d="M229.2 380.1C223.92 380.1 219.6 375.78 219.6 370.5V228.9C219.6 223.62 223.92 219.3 229.2 219.3H370.8C376.08 219.3 380.4 223.62 380.4 228.9V370.5C380.4 375.78 376.08 380.1 370.8 380.1H229.2Z" fill="#92D6E9"/>
<path d="M380.4 228.9V370.5C380.4 375.78 376.08 380.1 370.8 380.1H229.2C223.92 380.1 219.6 375.78 219.6 370.5V228.9C219.6 223.62 223.92 219.3 229.2 219.3H305.64C308.34 220.56 310.2 223.38 310.2 226.44V232.62H359.76C361.32 232.62 362.76 233.28 363.78 234.3L376.2 220.98C378.72 222.66 380.4 225.6 380.4 228.9Z" stroke="#212552" stroke-miterlimit="10" stroke-linecap="round" stroke-linejoin="round"/>
<path opacity="0.23" d="M354.54 355.14L387.3 373.5L393.9 352.98L376.2 340.86L354.54 355.14Z" fill="#0A1E2B" stroke="#0A1E2B" stroke-miterlimit="10" stroke-linecap="round" stroke-linejoin="round"/>
<path d="M376.2 220.98L363.78 234.3C362.76 233.28 361.32 232.62 359.76 232.62H310.2V226.44C310.2 223.38 308.28 220.56 305.64 219.3H370.8C372.78 219.3 374.7 219.9 376.2 220.98Z" fill="#53ADBC"/>
<path d="M376.2 220.98L363.78 234.3C362.76 233.28 361.32 232.62 359.76 232.62H310.2V226.44C310.2 223.38 308.28 220.56 305.64 219.3H370.8C372.78 219.3 374.7 219.9 376.2 220.98Z" stroke="#212552" stroke-miterlimit="10" stroke-linecap="round" stroke-linejoin="round"/>
<path d="M363.78 234.239C364.8 235.259 365.46 236.699 365.46 238.259V357.6C365.46 361.08 362.64 363.84 359.22 363.84H310.2" stroke="#212552" stroke-miterlimit="10" stroke-linecap="round" stroke-linejoin="round"/>
<path d="M397.2 337.62L386.34 309.48C385.74 307.86 383.88 307.08 382.26 307.68L355.68 318L329.1 328.26C327.48 328.86 326.7 330.72 327.3 332.34L338.16 360.48C338.76 362.1 340.62 362.88 342.24 362.28L368.82 352.02L395.4 341.76C397.02 341.04 397.86 339.24 397.2 337.62Z" fill="#5F9E71" stroke="#212552" stroke-miterlimit="10" stroke-linecap="round" stroke-linejoin="round"/>
<path d="M397.2 337.62L386.34 309.48C385.74 307.86 383.88 307.08 382.26 307.68L355.68 318L329.1 328.26C327.48 328.86 326.7 330.72 327.3 332.34L338.16 360.48C338.76 362.1 340.62 362.88 342.24 362.28L368.82 352.02L395.4 341.76C397.02 341.04 397.86 339.24 397.2 337.62Z" stroke="#212552" stroke-miterlimit="10" stroke-linecap="round" stroke-linejoin="round"/>
<path d="M389.58 336.24L386.76 328.98C385.08 329.64 383.22 328.8 382.56 327.12C381.9 325.44 382.74 323.58 384.42 322.92L381.6 315.66C381.24 314.82 380.28 314.34 379.44 314.7L358.2 322.92L357.72 323.1L336.48 331.32C335.64 331.68 335.16 332.64 335.52 333.48L338.34 340.74C340.02 340.08 341.88 340.92 342.54 342.6C343.2 344.28 342.36 346.14 340.68 346.8L343.5 354.06C343.86 354.9 344.82 355.38 345.66 355.02L366.9 346.8L367.38 346.62L388.62 338.4C389.46 338.1 389.88 337.14 389.58 336.24Z" fill="#90C49E"/>
<path d="M365.084 342.419C369.01 340.901 370.903 336.338 369.314 332.228C367.725 328.117 363.254 326.015 359.329 327.532C355.404 329.05 353.51 333.613 355.099 337.723C356.689 341.834 361.159 343.936 365.084 342.419Z" fill="white"/>
<path opacity="0.23" d="M349.14 340.86L370.44 312.3L369.6 284.4L349.14 340.86Z" fill="#0A1E2B" stroke="#0A1E2B" stroke-miterlimit="10" stroke-linecap="round" stroke-linejoin="round"/>
<path d="M335.881 343.2H326.34L330.061 356.64L331.801 361.14L335.881 343.2Z" fill="#A78B75"/>
<path d="M323.34 363.9H303.36C299.64 363.9 297.36 360.84 298.26 357.36L301.2 345.6C301.68 343.56 304.14 342.06 306.66 342.06H320.16C322.68 342.06 325.08 343.56 325.62 345.6L328.56 357.36C329.34 360.78 327.06 363.9 323.34 363.9Z" fill="#FFE07D"/>
<path d="M328.501 357.36L325.56 345.6C325.08 343.56 322.62 342.06 320.1 342.06H306.6C304.08 342.06 301.68 343.56 301.14 345.6L301.08 345.9C301.62 345.78 302.16 345.72 302.7 345.72H316.2C318.72 345.72 321.12 347.22 321.66 349.26L324.6 361.02C324.84 361.98 324.84 362.94 324.6 363.78C327.541 363.18 329.221 360.42 328.501 357.36Z" fill="#FFE8A6"/>
<path d="M323.34 363.9H303.36C299.64 363.9 297.36 360.84 298.26 357.36L301.2 345.6C301.68 343.56 304.14 342.06 306.66 342.06H320.16C322.68 342.06 325.08 343.56 325.62 345.6L328.56 357.36C329.34 360.78 327.06 363.9 323.34 363.9Z" stroke="#212552" stroke-miterlimit="10" stroke-linecap="round" stroke-linejoin="round"/>
<path d="M308.04 342.06H288.06C284.34 342.06 282.06 339 282.96 335.52L285.9 323.76C286.38 321.72 288.84 320.22 291.36 320.22H304.8C307.32 320.22 309.72 321.72 310.26 323.76L313.2 335.52C314.04 338.94 311.76 342.06 308.04 342.06Z" fill="#FFE07D"/>
<path d="M308.04 342.06H288.06C284.34 342.06 282.06 339 282.96 335.52L285.9 323.76C286.38 321.72 288.84 320.22 291.36 320.22H304.8C307.32 320.22 309.72 321.72 310.26 323.76L313.2 335.52C314.04 338.94 311.76 342.06 308.04 342.06Z" stroke="#212552" stroke-miterlimit="10" stroke-linecap="round" stroke-linejoin="round"/>
<path d="M367.74 282.539L339.48 271.979C337.86 271.379 336.06 272.219 335.46 273.839L325.5 300.54L315.54 327.24C314.94 328.86 315.78 330.66 317.4 331.26L345.66 341.82C347.28 342.42 349.08 341.58 349.68 339.96L359.64 313.26L369.6 286.559C370.2 284.939 369.36 283.139 367.74 282.539Z" fill="#5F9E71" stroke="#212552" stroke-miterlimit="10" stroke-linecap="round" stroke-linejoin="round"/>
<path d="M361.621 287.34L354.36 284.64C353.76 286.32 351.84 287.16 350.16 286.56C348.48 285.96 347.64 284.04 348.24 282.36L340.98 279.66C340.08 279.36 339.12 279.78 338.82 280.62L330.84 301.98L330.66 302.46L322.68 323.82C322.38 324.72 322.8 325.68 323.64 325.98L330.9 328.68C331.5 327 333.42 326.16 335.1 326.76C336.78 327.36 337.62 329.28 337.02 330.96L344.28 333.66C345.18 333.96 346.14 333.54 346.44 332.7L354.42 311.34L354.6 310.86L362.58 289.5C362.941 288.66 362.521 287.7 361.621 287.34Z" fill="#90C49E"/>
<path d="M349.985 309.658C351.457 305.715 349.303 301.269 345.174 299.728C341.044 298.187 336.504 300.134 335.032 304.077C333.561 308.019 335.715 312.465 339.844 314.006C343.973 315.548 348.514 313.601 349.985 309.658Z" fill="white"/>
<path d="M367.74 282.539L339.48 271.979C337.86 271.379 336.06 272.219 335.46 273.839L325.5 300.54L315.54 327.24C314.94 328.86 315.78 330.66 317.4 331.26L345.66 341.82C347.28 342.42 349.08 341.58 349.68 339.96L359.64 313.26L369.6 286.559C370.2 284.939 369.36 283.139 367.74 282.539Z" stroke="#212552" stroke-miterlimit="10" stroke-linecap="round" stroke-linejoin="round"/>
<path d="M322.681 321.96L310.98 321.42L314.401 333.3L318.601 339.9L322.681 321.96Z" fill="#A78B75"/>
<path d="M340.739 342.06H320.76C317.04 342.06 314.76 339 315.66 335.52L318.6 323.76C319.08 321.72 321.54 320.22 324.06 320.22H337.559C340.079 320.22 342.479 321.72 343.019 323.76L345.959 335.52C346.739 338.94 344.459 342.06 340.739 342.06Z" fill="#FFE07D"/>
<path d="M345.84 335.52L342.9 323.76C342.42 321.72 339.96 320.22 337.44 320.22H324C321.48 320.22 319.08 321.72 318.54 323.76L318.36 324.48C319.08 324.24 319.8 324.06 320.58 324.06H334.08C336.6 324.06 339 325.56 339.54 327.6L342.48 339.36C342.66 340.2 342.72 340.98 342.6 341.76C345.18 340.92 346.56 338.34 345.84 335.52Z" fill="#FFE8A6"/>
<path d="M340.739 342.06H320.76C317.04 342.06 314.76 339 315.66 335.52L318.6 323.76C319.08 321.72 321.54 320.22 324.06 320.22H337.559C340.079 320.22 342.479 321.72 343.019 323.76L345.959 335.52C346.739 338.94 344.459 342.06 340.739 342.06Z" stroke="#212552" stroke-miterlimit="10" stroke-linecap="round" stroke-linejoin="round"/>
<path d="M325.32 320.22H305.34C301.62 320.22 299.34 317.16 300.24 313.68L303.18 301.92C303.66 299.88 306.12 298.38 308.64 298.38H322.14C324.66 298.38 327.06 299.88 327.6 301.92L330.54 313.68C331.26 317.1 329.04 320.22 325.32 320.22Z" fill="#FFE07D"/>
<path d="M330.42 313.68L327.48 301.92C327 299.88 324.54 298.38 322.02 298.38H308.52C306 298.38 303.6 299.88 303.06 301.92V302.04C303.66 301.86 304.32 301.74 304.98 301.74H318.48C321 301.74 323.4 303.24 323.94 305.28L326.88 317.04C327.12 318.06 327.12 319.08 326.82 319.98C329.64 319.26 331.14 316.62 330.42 313.68Z" fill="#FFE8A6"/>
<path d="M325.32 320.22H305.34C301.62 320.22 299.34 317.16 300.24 313.68L303.18 301.92C303.66 299.88 306.12 298.38 308.64 298.38H322.14C324.66 298.38 327.06 299.88 327.6 301.92L330.54 313.68C331.26 317.1 329.04 320.22 325.32 320.22Z" stroke="#212552" stroke-miterlimit="10" stroke-linecap="round" stroke-linejoin="round"/>
<path opacity="0.23" d="M370.8 219.3H273.48L276.3 306.66H329.04L369.6 284.4L380.4 244.32V228.9C380.4 223.56 376.08 219.3 370.8 219.3Z" fill="#0A1E2B" stroke="#0A1E2B" stroke-miterlimit="10" stroke-linecap="round" stroke-linejoin="round"/>
<path d="M356.94 363.9H336.959C333.239 363.9 330.959 360.84 331.859 357.36L334.799 345.6C335.279 343.56 337.739 342.06 340.26 342.06H353.76C356.28 342.06 358.68 343.56 359.22 345.6L362.16 357.36C362.94 360.78 360.66 363.9 356.94 363.9Z" fill="#FFE07D"/>
<path d="M362.04 357.36L359.1 345.6C358.62 343.56 356.16 342.06 353.64 342.06H340.2C337.68 342.06 335.28 343.56 334.74 345.6L334.5 346.62C335.16 346.38 335.88 346.26 336.6 346.26H350.1C352.62 346.26 355.02 347.76 355.56 349.8L358.5 361.56C358.68 362.28 358.74 363 358.62 363.66C361.32 362.88 362.76 360.24 362.04 357.36Z" fill="#FFE8A6"/>
<path d="M356.94 363.9H336.959C333.239 363.9 330.959 360.84 331.859 357.36L334.799 345.6C335.279 343.56 337.739 342.06 340.26 342.06H353.76C356.28 342.06 358.68 343.56 359.22 345.6L362.16 357.36C362.94 360.78 360.66 363.9 356.94 363.9Z" stroke="#212552" stroke-miterlimit="10" stroke-linecap="round" stroke-linejoin="round"/>
<path d="M227.34 372.3V226.98C227.34 221.52 230.4 216.54 234.18 215.76L282.72 206.04C287.58 205.08 291.54 209.4 291.54 215.64V383.64C291.54 389.94 287.52 394.2 282.72 393.24L234.18 383.52C230.4 382.8 227.34 377.76 227.34 372.3Z" fill="#92D6E9"/>
<path d="M227.34 372.3V226.98C227.34 221.52 230.4 216.54 234.18 215.76L282.72 206.04C287.58 205.08 291.54 209.4 291.54 215.64V383.64C291.54 389.94 287.52 394.2 282.72 393.24L234.18 383.52C230.4 382.8 227.34 377.76 227.34 372.3Z" stroke="#212552" stroke-miterlimit="10" stroke-linecap="round" stroke-linejoin="round"/>
<path d="M219.6 370.5V228.9C219.6 223.62 222.54 218.58 226.26 217.74L274.8 206.4C279.72 205.26 283.86 209.4 283.86 215.7V383.7C283.86 390 279.78 394.14 274.8 393L226.32 381.66C222.54 380.76 219.6 375.78 219.6 370.5Z" fill="#CBEDF9"/>
<path d="M274.8 383.34L226.32 372C222.6 371.1 219.66 366.12 219.66 360.84V370.44C219.66 375.72 222.6 380.76 226.32 381.6L274.8 392.94C279.72 394.08 283.86 389.94 283.86 383.64V374.04C283.86 380.4 279.72 384.54 274.8 383.34Z" fill="#92D6E9"/>
<path d="M274.8 206.4L226.32 217.74C222.6 218.64 219.66 223.62 219.66 228.9V236.1C219.66 230.82 222.6 225.78 226.32 224.94L274.8 213.6C279.72 212.46 283.86 216.6 283.86 222.9V215.7C283.86 209.4 279.72 205.26 274.8 206.4Z" fill="#E8F9FF"/>
<path d="M276.3 257.04C277.858 257.04 279.12 254.192 279.12 250.68C279.12 247.167 277.858 244.32 276.3 244.32C274.743 244.32 273.48 247.167 273.48 250.68C273.48 254.192 274.743 257.04 276.3 257.04Z" fill="#212552"/>
<path d="M219.6 370.5V228.9C219.6 223.62 222.54 218.58 226.26 217.74L274.8 206.4C279.72 205.26 283.86 209.4 283.86 215.7V383.7C283.86 390 279.78 394.14 274.8 393L226.32 381.66C222.54 380.76 219.6 375.78 219.6 370.5Z" stroke="#212552" stroke-miterlimit="10" stroke-linecap="round" stroke-linejoin="round"/>
<path d="M249.36 336.72C258.605 336.72 266.1 322.052 266.1 303.96C266.1 285.867 258.605 271.199 249.36 271.199C240.114 271.199 232.62 285.867 232.62 303.96C232.62 322.052 240.114 336.72 249.36 336.72Z" fill="#9FBDCA" stroke="#9FBDCA" stroke-miterlimit="10" stroke-linecap="round" stroke-linejoin="round"/>
<path d="M248.76 339.66C251.61 339.66 253.921 337.564 253.921 334.98C253.921 332.395 251.61 330.3 248.76 330.3C245.91 330.3 243.6 332.395 243.6 334.98C243.6 337.564 245.91 339.66 248.76 339.66Z" fill="#9FBDCA" stroke="#9FBDCA" stroke-miterlimit="10" stroke-linecap="round" stroke-linejoin="round"/>
<path d="M250.08 333.3C259.954 333.3 267.959 318.391 267.959 300C267.959 281.609 259.954 266.7 250.08 266.7C240.205 266.7 232.2 281.609 232.2 300C232.2 318.391 240.205 333.3 250.08 333.3Z" fill="#CBEDF9"/>
<path d="M248.76 327.599C256.514 327.599 262.8 315.243 262.8 300C262.8 284.757 256.514 272.4 248.76 272.4C241.006 272.4 234.72 284.757 234.72 300C234.72 315.243 241.006 327.599 248.76 327.599Z" fill="#92D6E9"/>
<g opacity="0.23">
<path d="M233.22 300L259.5 301.02L251.7 333.18L243.06 330.66L232.2 300" fill="#0A1E2B"/>
<path d="M233.22 300L259.5 301.02L251.7 333.18L243.06 330.66L232.2 300" stroke="#0A1E2B" stroke-miterlimit="10" stroke-linecap="round" stroke-linejoin="round"/>
</g>
<path d="M250.08 333.3C259.954 333.3 267.959 318.391 267.959 300C267.959 281.609 259.954 266.7 250.08 266.7C240.205 266.7 232.2 281.609 232.2 300C232.2 318.391 240.205 333.3 250.08 333.3Z" stroke="#212552" stroke-miterlimit="10" stroke-linecap="round" stroke-linejoin="round"/>
<path opacity="0.23" d="M219.6 277.199C216.96 277.199 214.8 275.039 214.8 272.399V257.999C214.8 255.359 216.96 253.199 219.6 253.199C222.24 253.199 224.4 255.359 224.4 257.999V272.399C224.4 275.039 222.24 277.199 219.6 277.199Z" fill="#0A1E2B" stroke="#0A1E2B" stroke-miterlimit="10" stroke-linecap="round" stroke-linejoin="round"/>
<path opacity="0.23" d="M219.6 355.5C216.96 355.5 214.8 353.34 214.8 350.7V336.3C214.8 333.66 216.96 331.5 219.6 331.5C222.24 331.5 224.4 333.66 224.4 336.3V350.7C224.4 353.34 222.24 355.5 219.6 355.5Z" fill="#0A1E2B" stroke="#0A1E2B" stroke-miterlimit="10" stroke-linecap="round" stroke-linejoin="round"/>
<path d="M219.6 272.4C216.96 272.4 214.8 270.24 214.8 267.6V253.2C214.8 250.56 216.96 248.4 219.6 248.4C222.24 248.4 224.4 250.56 224.4 253.2V267.6C224.4 270.24 222.24 272.4 219.6 272.4Z" fill="#92D6E9"/>
<path d="M219.6 351C216.96 351 214.8 348.84 214.8 346.2V331.8C214.8 329.16 216.96 327 219.6 327C222.24 327 224.4 329.16 224.4 331.8V346.2C224.4 348.84 222.24 351 219.6 351Z" fill="#92D6E9"/>
<path d="M219.6 272.4C216.96 272.4 214.8 270.24 214.8 267.6V253.2C214.8 250.56 216.96 248.4 219.6 248.4C222.24 248.4 224.4 250.56 224.4 253.2V267.6C224.4 270.24 222.24 272.4 219.6 272.4Z" stroke="#212552" stroke-miterlimit="10" stroke-linecap="round" stroke-linejoin="round"/>
<path d="M219.6 351C216.96 351 214.8 348.84 214.8 346.2V331.8C214.8 329.16 216.96 327 219.6 327C222.24 327 224.4 329.16 224.4 331.8V346.2C224.4 348.84 222.24 351 219.6 351Z" stroke="#212552" stroke-miterlimit="10" stroke-linecap="round" stroke-linejoin="round"/>
<path d="M246.84 287.7H237.42V312.36H246.84C250.98 312.36 254.279 306.84 254.279 300.06C254.279 293.28 250.92 287.7 246.84 287.7Z" fill="#3CA4B5"/>
<path d="M246.84 287.7H237.42V312.36H246.84C250.98 312.36 254.279 306.84 254.279 300.06C254.279 293.28 250.92 287.7 246.84 287.7Z" stroke="#212552" stroke-miterlimit="10" stroke-linecap="round" stroke-linejoin="round"/>
<path d="M246.84 312.3C250.949 312.3 254.28 306.793 254.28 300C254.28 293.207 250.949 287.7 246.84 287.7C242.731 287.7 239.4 293.207 239.4 300C239.4 306.793 242.731 312.3 246.84 312.3Z" stroke="#212552" stroke-miterlimit="10" stroke-linecap="round" stroke-linejoin="round"/>
<path d="M258.6 300H246.3" stroke="#212552" stroke-miterlimit="10" stroke-linecap="round" stroke-linejoin="round"/>
<path d="M239.34 287.7H246.84V278.04L239.34 287.7Z" stroke="#212552" stroke-miterlimit="10" stroke-linecap="round" stroke-linejoin="round"/>
<path d="M239.34 287.7H246.84V278.04L239.34 287.7Z" fill="#212552"/>
<path d="M239.34 312.3H246.84V321.96L239.34 312.3Z" fill="#212552"/>
<path d="M239.34 312.3H246.84V321.96L239.34 312.3Z" stroke="#212552" stroke-miterlimit="10" stroke-linecap="round" stroke-linejoin="round"/>
<path d="M237.421 312.3C241.53 312.3 244.861 306.793 244.861 300C244.861 293.207 241.53 287.7 237.421 287.7C233.312 287.7 229.98 293.207 229.98 300C229.98 306.793 233.312 312.3 237.421 312.3Z" fill="#FFEA9E"/>
<path d="M236.82 306C238.841 306 240.48 303.314 240.48 300C240.48 296.686 238.841 294 236.82 294C234.798 294 233.16 296.686 233.16 300C233.16 303.314 234.798 306 236.82 306Z" fill="#FFE07D"/>
<path d="M237.421 312.3C241.53 312.3 244.861 306.793 244.861 300C244.861 293.207 241.53 287.7 237.421 287.7C233.312 287.7 229.98 293.207 229.98 300C229.98 306.793 233.312 312.3 237.421 312.3Z" stroke="#212552" stroke-miterlimit="10" stroke-linecap="round" stroke-linejoin="round"/>
<path d="M303.18 380.76L291 381.96V217.38L303.18 218.58C307.08 218.94 310.2 222.48 310.2 226.38V372.9C310.2 376.86 307.08 380.4 303.18 380.76Z" fill="#CBEDF9"/>
<path opacity="0.23" d="M310.56 279.96V262.8H297.18V280.98H297.24C297.24 284.7 300.24 287.7 303.96 287.7C307.68 287.7 310.68 284.7 310.68 280.98C310.68 280.62 310.62 280.32 310.56 279.96Z" fill="#0A1E2B" stroke="#0A1E2B" stroke-miterlimit="10" stroke-linecap="round" stroke-linejoin="round"/>
<path d="M310.2 226.38V372.9C310.2 375.96 308.34 378.78 305.76 380.04C305.04 380.4 304.2 380.64 303.36 380.7L291.6 381.9V217.38L303.36 218.58C304.2 218.64 304.98 218.88 305.76 219.24C308.34 220.56 310.2 223.32 310.2 226.38Z" stroke="#212552" stroke-miterlimit="10" stroke-linecap="round" stroke-linejoin="round"/>
<path d="M363.18 362.46L377.7 377.16" stroke="#212552" stroke-miterlimit="10" stroke-linecap="round" stroke-linejoin="round"/>
<path d="M304.139 254.88C300.419 254.88 297.419 257.88 297.419 261.6C297.419 265.32 300.419 268.32 304.139 268.32H310.679V254.94H304.139V254.88Z" fill="#92D6E9"/>
<path d="M304.139 254.88C300.419 254.88 297.419 257.88 297.419 261.6C297.419 265.32 300.419 268.32 304.139 268.32H310.679V254.94H304.139V254.88Z" stroke="#212552" stroke-miterlimit="10" stroke-linecap="round" stroke-linejoin="round"/>
<path d="M310.68 268.32C314.391 268.32 317.4 265.311 317.4 261.6C317.4 257.889 314.391 254.88 310.68 254.88C306.969 254.88 303.96 257.889 303.96 261.6C303.96 265.311 306.969 268.32 310.68 268.32Z" fill="#CBEDF9"/>
<path d="M310.68 268.32C314.391 268.32 317.4 265.311 317.4 261.6C317.4 257.889 314.391 254.88 310.68 254.88C306.969 254.88 303.96 257.889 303.96 261.6C303.96 265.311 306.969 268.32 310.68 268.32Z" stroke="#212552" stroke-miterlimit="10" stroke-linecap="round" stroke-linejoin="round"/>
<path d="M310.68 268.32C314.391 268.32 317.4 265.311 317.4 261.6C317.4 257.889 314.391 254.88 310.68 254.88C306.969 254.88 303.96 257.889 303.96 261.6C303.96 265.311 306.969 268.32 310.68 268.32Z" stroke="#212552" stroke-miterlimit="10" stroke-linecap="round" stroke-linejoin="round"/>
<path opacity="0.23" d="M310.56 356.58V339.42H297.18V357.6H297.24C297.24 361.32 300.24 364.32 303.96 364.32C307.68 364.32 310.68 361.32 310.68 357.6C310.68 357.24 310.62 356.88 310.56 356.58Z" fill="#0A1E2B" stroke="#0A1E2B" stroke-miterlimit="10" stroke-linecap="round" stroke-linejoin="round"/>
<path d="M304.139 331.5C300.419 331.5 297.419 334.5 297.419 338.22C297.419 341.94 300.419 344.94 304.139 344.94H310.679V331.56H304.139V331.5Z" fill="#92D6E9"/>
<path d="M304.139 331.5C300.419 331.5 297.419 334.5 297.419 338.22C297.419 341.94 300.419 344.94 304.139 344.94H310.679V331.56H304.139V331.5Z" stroke="#212552" stroke-miterlimit="10" stroke-linecap="round" stroke-linejoin="round"/>
<path d="M310.68 344.88C314.391 344.88 317.4 341.871 317.4 338.16C317.4 334.449 314.391 331.44 310.68 331.44C306.969 331.44 303.96 334.449 303.96 338.16C303.96 341.871 306.969 344.88 310.68 344.88Z" fill="#CBEDF9"/>
<path d="M310.68 344.88C314.391 344.88 317.4 341.871 317.4 338.16C317.4 334.449 314.391 331.44 310.68 331.44C306.969 331.44 303.96 334.449 303.96 338.16C303.96 341.871 306.969 344.88 310.68 344.88Z" stroke="#212552" stroke-miterlimit="10" stroke-linecap="round" stroke-linejoin="round"/>
<path d="M270.6 343.38C269.28 343.38 268.2 342.3 268.2 340.98V255.78C268.2 254.46 269.28 253.38 270.6 253.38H275.52V247.98H270C266.041 247.98 262.801 251.22 262.801 255.18V341.58C262.801 345.54 266.041 348.78 270 348.78H275.52V343.38H270.6Z" fill="#92D6E9"/>
<path d="M276.3 352.02C277.858 352.02 279.12 349.172 279.12 345.66C279.12 342.147 277.858 339.299 276.3 339.299C274.743 339.299 273.48 342.147 273.48 345.66C273.48 349.172 274.743 352.02 276.3 352.02Z" fill="#212552"/>
<path d="M270.6 343.38C269.28 343.38 268.2 342.3 268.2 340.98V255.78C268.2 254.46 269.28 253.38 270.6 253.38H275.52V247.98H270C266.041 247.98 262.801 251.22 262.801 255.18V341.58C262.801 345.54 266.041 348.78 270 348.78H275.52V343.38H270.6Z" stroke="#212552" stroke-miterlimit="10" stroke-linecap="round" stroke-linejoin="round"/>
<path d="M378 401.7H222C208.74 401.7 198 390.96 198 377.7V221.7C198 208.44 208.74 197.7 222 197.7H378C391.26 197.7 402 208.44 402 221.7V377.7C402 390.96 391.26 401.7 378 401.7Z" stroke="#212552" stroke-miterlimit="10" stroke-linecap="round" stroke-linejoin="round"/>
<path opacity="0.23" d="M275.701 255.9L276.3 362.46" stroke="#0A1E2B" stroke-miterlimit="10" stroke-linecap="round" stroke-linejoin="round"/>
<path d="M275.161 206.22L284.46 205.92" stroke="#212552" stroke-miterlimit="10" stroke-linecap="round" stroke-linejoin="round"/>
<path d="M276 393.12L284.58 393.36" stroke="#212552" stroke-miterlimit="10" stroke-linecap="round" stroke-linejoin="round"/>
</svg>
