<svg width="264" height="247" viewBox="0 0 264 247" fill="none" xmlns="http://www.w3.org/2000/svg">
<g clip-path="url(#clip0_26_1754)">
<path d="M30.3564 113.753L44.6408 91.2886L54.5236 102.512L69.7861 85.0318L101.829 93.1974L126.013 66.0494C126.013 66.0494 133.568 73.7201 134.074 73.1192C134.58 72.5183 152.069 49.7535 152.069 49.7535" stroke="#202020" stroke-width="0.75" stroke-linecap="round" stroke-linejoin="round"/>
<path d="M150.754 54.8791C153.064 54.8791 154.936 52.9166 154.936 50.4958C154.936 48.075 153.064 46.1125 150.754 46.1125C148.444 46.1125 146.571 48.075 146.571 50.4958C146.571 52.9166 148.444 54.8791 150.754 54.8791Z" fill="#202020"/>
<path d="M13.0364 20.8381V140.441H172.644V20.8381H13.0364ZM166.185 133.495H19.4618V27.7842H166.185V133.495Z" fill="#F59B79"/>
<path d="M148.949 133.495H19.4282V135.334H148.949V133.495Z" fill="#F06733"/>
<path d="M15.4649 20.8381H13.0364V140.424H15.4649V20.8381Z" fill="#FFC4AD"/>
<path d="M23.5264 28.4558H20.0186V132.753H23.5264V28.4558Z" fill="#EBE0FD"/>
<path d="M165.949 32.1321V28.4558L21.6375 28.4558V32.1321L165.949 32.1321Z" fill="#EBE0FD"/>
<path d="M13.0364 121.3V94.6646" stroke="#111111" stroke-width="0.75" stroke-linecap="round" stroke-linejoin="round"/>
<path d="M13.0364 43.0373V20.8381H172.644V140.441H13.0364V126.602" stroke="#111111" stroke-width="0.75" stroke-linecap="round" stroke-linejoin="round"/>
<path d="M13.0364 86.5696V57.3007" stroke="#111111" stroke-width="0.75" stroke-linecap="round" stroke-linejoin="round"/>
<path d="M166.202 27.7842H19.4956V133.495H166.202V27.7842Z" stroke="#111111" stroke-width="0.75" stroke-linecap="round" stroke-linejoin="round"/>
<path d="M261.673 145.072H147.92V63.0272L159.911 61.2598H263.359L261.673 145.072Z" fill="#BBF0F9"/>
<path d="M261.673 145.072H147.92V140.671H159.911H261.673V145.072Z" fill="#3ACDDD"/>
<path d="M162.154 87.1705L162.643 62.9741H249.985" stroke="white" stroke-width="2" stroke-linecap="round" stroke-linejoin="round"/>
<path d="M159.422 145.072H148.409V63.4514L161.108 61.2598L159.422 145.072Z" fill="#3ACDDD"/>
<path d="M151.125 72.4653C151.468 71.4258 151.862 70.4052 152.305 69.4076C152.702 68.3698 153.333 67.448 154.143 66.7211C153.671 67.6934 153.147 68.6374 152.575 69.549C152.052 70.5034 151.597 71.4755 151.125 72.4653Z" fill="#111111"/>
<path d="M150.501 70.6979C150.654 69.7652 150.885 68.8484 151.192 67.9584C151.438 67.0235 151.936 66.1827 152.626 65.537C152.291 66.4081 151.909 67.258 151.479 68.0821C151.108 68.9285 150.798 69.8029 150.552 70.6979H150.501Z" fill="#111111"/>
<path d="M154.919 140.565C154.463 139.575 154.057 138.561 153.705 137.525C153.289 136.518 153.11 135.421 153.182 134.326C153.509 135.364 153.779 136.42 153.991 137.49C154.261 138.533 154.599 139.575 154.936 140.618L154.919 140.565Z" fill="#111111"/>
<path d="M153.317 139.787C152.778 139.023 152.32 138.199 151.951 137.331C151.487 136.49 151.27 135.525 151.327 134.556C151.667 135.415 151.959 136.295 152.204 137.189C152.517 138.073 152.883 138.935 153.3 139.77L153.317 139.787Z" fill="#111111"/>
<path d="M259.885 145.072H149.388C148.999 145.072 148.625 144.91 148.35 144.622C148.075 144.333 147.92 143.942 147.92 143.535V64.2821C147.918 63.9311 148.038 63.5914 148.259 63.3275C148.48 63.0635 148.786 62.8938 149.118 62.8505L159.911 61.2598H261.572C262.046 61.2598 262.5 61.4572 262.836 61.8085C263.171 62.1598 263.359 62.6364 263.359 63.1333L261.673 143.181C261.673 143.68 261.485 144.158 261.15 144.512C260.815 144.866 260.361 145.068 259.885 145.072V145.072Z" stroke="#111111" stroke-width="0.75" stroke-linecap="round" stroke-linejoin="round"/>
<path d="M159.422 145.072L161.108 61.2598" stroke="#111111" stroke-width="0.75" stroke-linecap="round" stroke-linejoin="round"/>
<path d="M160.265 139.133H171.295" stroke="#111111" stroke-width="0.5" stroke-linecap="round" stroke-linejoin="round"/>
<path d="M174.246 139.133H175.578" stroke="#111111" stroke-width="0.5" stroke-linecap="round" stroke-linejoin="round"/>
<path d="M19.3774 35.5786H30.407" stroke="#111111" stroke-width="0.5" stroke-linecap="round" stroke-linejoin="round"/>
<path d="M33.3584 35.5786H34.6907" stroke="#111111" stroke-width="0.5" stroke-linecap="round" stroke-linejoin="round"/>
<path d="M161.108 71.4933H176.354" stroke="#111111" stroke-width="0.5" stroke-linecap="round" stroke-linejoin="round"/>
<path d="M179.305 71.4933H182.762" stroke="#111111" stroke-width="0.5" stroke-linecap="round" stroke-linejoin="round"/>
<path d="M161.108 67.3574H188.159" stroke="#111111" stroke-width="0.5" stroke-linecap="round" stroke-linejoin="round"/>
<path d="M19.833 24.1963H46.9008" stroke="#111111" stroke-width="0.5" stroke-linecap="round" stroke-linejoin="round"/>
<path d="M165.443 39.0428H160.299" stroke="#111111" stroke-width="0.5" stroke-linecap="round" stroke-linejoin="round"/>
<path d="M157.348 39.0428H153.891" stroke="#111111" stroke-width="0.5" stroke-linecap="round" stroke-linejoin="round"/>
<path d="M165.443 34.907H148.494" stroke="#111111" stroke-width="0.5" stroke-linecap="round" stroke-linejoin="round"/>
<path d="M189.458 144.118C189.386 144.134 189.311 144.134 189.239 144.118C189.131 144.091 189.028 144.042 188.939 143.972C188.85 143.903 188.775 143.815 188.72 143.713C188.664 143.612 188.629 143.5 188.617 143.384C188.605 143.268 188.616 143.151 188.649 143.04C188.801 142.439 192.629 128.246 201.415 123.898C201.619 123.8 201.851 123.79 202.063 123.869C202.274 123.949 202.447 124.111 202.545 124.322C202.594 124.428 202.621 124.542 202.627 124.659C202.633 124.776 202.617 124.893 202.579 125.003C202.541 125.113 202.483 125.214 202.408 125.301C202.333 125.387 202.242 125.457 202.14 125.506C194.045 129.501 190.335 143.375 190.335 143.517C190.278 143.708 190.159 143.872 189.999 143.981C189.839 144.091 189.648 144.139 189.458 144.118Z" fill="#3ACDDD"/>
<path d="M203.642 126.266C194.062 126.266 186.305 157.161 186.305 166.918V167.908H220.928V167.006C220.928 157.161 213.221 126.266 203.642 126.266Z" fill="#BBF0F9"/>
<path d="M203.186 125.613C193.86 125.613 186.321 156.508 186.321 166.264V167.165H220.051V166.264C220.051 150.233 212.495 125.613 203.186 125.613Z" stroke="#111111" stroke-width="0.75" stroke-linecap="round" stroke-linejoin="round"/>
<path d="M207.891 146.398C207.891 150.816 205.783 154.404 203.169 154.404C202.688 154.402 202.214 154.281 201.786 154.051C203.709 153.043 205.159 150.003 205.159 146.398C205.159 142.792 203.759 139.752 201.786 138.745C202.214 138.514 202.688 138.393 203.169 138.391C205.749 138.391 207.891 141.979 207.891 146.398Z" fill="#3ACDDD"/>
<path d="M203.186 154.404C205.784 154.404 207.891 150.82 207.891 146.398C207.891 141.976 205.784 138.391 203.186 138.391C200.587 138.391 198.48 141.976 198.48 146.398C198.48 150.82 200.587 154.404 203.186 154.404Z" stroke="#111111" stroke-width="0.75" stroke-linecap="round" stroke-linejoin="round"/>
<path d="M184.146 167.183V172.556" stroke="#111111" stroke-width="0.75" stroke-linecap="round" stroke-linejoin="round"/>
<path d="M231.367 167.183H170.35V172.556H231.367V167.183Z" fill="#BBF0F9"/>
<path d="M184.145 167.183H170.35V172.556H184.145V167.183Z" fill="#3ACDDD"/>
<path d="M231.367 167.183H170.35V172.556H231.367V167.183Z" stroke="#111111" stroke-width="0.75" stroke-linecap="round" stroke-linejoin="round"/>
<path d="M184.146 167.183V172.556" stroke="#111111" stroke-width="0.75" stroke-linecap="round" stroke-linejoin="round"/>
<path d="M87.4098 6.02718C87.4098 6.02718 82.4853 -0.83052 70.5789 0.972278C61.9273 2.26252 57.2389 12.8672 56.0078 18.9472C54.7766 25.0273 51.7579 32.8217 47.6935 45.2645C43.6291 57.7074 46.5804 63.1511 50.9483 68.7539C55.3163 74.3568 54.5574 84.4135 54.5574 84.4135C56.3619 101.275 70.0055 103.361 70.0055 103.361C70.0055 103.361 88.8771 106.454 97.8153 105.552C100.42 105.629 103.01 105.11 105.404 104.032C110.599 101.505 113.651 94.3819 113.938 88.3726C113.933 84.8914 114.346 81.4234 115.169 78.0507C117.126 72.4178 118.208 66.4922 118.373 60.4999C118.255 55.1976 115.793 50.4255 115.911 46.5548C116.029 42.6841 119.284 37.3994 118.491 28.4915C118.168 23.6741 116.782 19.0014 114.44 14.8421C112.099 10.6828 108.867 7.15081 105 4.52485C98.0683 -0.247262 89.636 2.49228 86.1281 4.01229" fill="#B994FC"/>
<path d="M93.8521 3.65858C93.8521 3.65858 113.685 0.671587 117.463 30.7182" stroke="#DBC7FF" stroke-linecap="round" stroke-linejoin="round"/>
<path d="M95.6059 105.941C87.2742 105.738 78.9643 104.958 70.7305 103.608C70.7305 103.608 57.1038 101.523 55.2993 84.6611C54.9186 79.2757 53.6995 73.9918 51.6902 69.0192C48.604 62.5326 44.3541 57.9903 48.4185 45.5298C52.4829 33.0692 55.5016 25.2571 56.7328 19.1948C57.9639 13.1324 61.4212 2.33331 70.0896 1.04307C71.7065 0.837618 73.3382 0.790282 74.9635 0.901672C74.2215 0.901672 74.9635 0.901672 71.0509 2.43935C62.8715 5.65611 60.3081 13.1324 59.0264 19.1948C57.7446 25.2571 54.7765 33.0692 50.7121 45.5298C46.6477 57.9903 49.6496 63.3987 53.967 69.0192C58.2843 74.6396 57.576 84.6611 57.576 84.6611C59.3805 101.523 73.0072 103.608 73.0072 103.608C80.494 104.816 88.0381 105.595 95.6059 105.941Z" fill="#DBC7FF"/>
<path d="M54.8102 76.8845C55.081 78.3416 55.2389 79.8193 55.2824 81.3031C55.2919 82.7086 55.3707 84.1126 55.5185 85.5096C55.8304 88.2492 56.6253 90.9042 57.8627 93.3394C59.1095 95.7651 60.8974 97.8389 63.0739 99.3841C64.1423 100.149 65.2706 100.817 66.4469 101.381C67.054 101.664 67.6611 101.912 68.2851 102.141L69.2295 102.442L69.7017 102.583H69.9547H70.0896C70.2347 102.635 70.3671 102.719 70.4775 102.831L69.9716 102.583C73.3445 103.06 76.5825 103.573 79.9049 103.962C83.2272 104.351 86.499 104.51 89.7876 104.757C93.0638 104.967 96.3503 104.919 99.6197 104.616C101.224 104.504 102.809 104.189 104.342 103.679C105.818 103.127 107.16 102.24 108.271 101.081C110.56 98.6459 112.144 95.5822 112.842 92.2436C113.651 88.9738 113.263 85.4743 113.651 81.9217C113.752 81.038 113.87 80.1542 114.056 79.2705C114.241 78.3868 114.528 77.5031 114.764 76.69C115.253 75.0463 115.726 73.3849 116.13 71.7235C116.996 68.4245 117.5 65.0326 117.631 61.6137C117.561 58.2025 116.992 54.8228 115.945 51.5923C115.43 49.8769 115.174 48.088 115.186 46.2899C115.403 44.4843 115.798 42.7073 116.366 40.9876C117.452 37.7612 118.022 34.3693 118.053 30.9485C117.975 27.5323 117.407 24.1479 116.366 20.9094C114.296 14.3409 110.126 8.72237 104.561 5.00233C101.85 3.18009 98.673 2.26757 95.4541 2.38651C92.2067 2.49227 89.0079 3.24193 86.0268 4.59582C85.9248 4.56622 85.8319 4.50919 85.7574 4.43038C85.6829 4.35158 85.6294 4.25373 85.6021 4.14655C85.5749 4.03937 85.5748 3.92658 85.602 3.81937C85.6291 3.71216 85.6825 3.61425 85.7569 3.53535C88.882 2.11114 92.2342 1.31379 95.6396 1.18464C99.1162 1.04852 102.549 2.03575 105.472 4.01256C111.206 7.91328 115.506 13.7404 117.665 20.5382C118.721 23.9126 119.289 27.4333 119.351 30.9838C119.388 34.5466 118.899 38.094 117.901 41.5001C117.38 43.0834 117.013 44.7177 116.805 46.3783C116.811 48.0347 117.061 49.6803 117.547 51.2565C118.625 54.6311 119.194 58.1613 119.233 61.7198C119.081 65.2608 118.566 68.7746 117.699 72.2007C117.294 73.9682 116.822 75.5766 116.316 77.2556C115.793 78.8587 115.414 80.5096 115.186 82.1868C114.967 83.9543 114.832 85.5803 114.714 87.3301C114.647 89.1213 114.392 90.8994 113.955 92.6324C113.154 96.1341 111.524 99.3678 109.216 102.035C107.995 103.366 106.518 104.409 104.882 105.093C103.237 105.658 101.542 106.043 99.8221 106.242C96.4592 106.583 93.0759 106.648 89.7033 106.436C86.3303 106.348 82.9574 105.906 79.7362 105.482C76.5151 105.058 72.9904 104.563 69.921 104.121L69.415 103.856C69.4802 103.956 69.575 104.03 69.6849 104.068H69.5668H69.3307L68.8248 103.926L67.8129 103.608C67.1552 103.361 66.4974 103.096 65.8566 102.795C64.5608 102.221 63.3328 101.491 62.197 100.621C59.8955 98.9002 57.9792 96.6748 56.581 94.0994C55.2136 91.519 54.3857 88.6632 54.1525 85.7217C54.0176 84.2724 54.0007 82.7701 53.967 81.4091C53.9285 80.0153 53.7875 78.6267 53.5454 77.2556C53.5308 77.1732 53.5318 77.0886 53.5485 77.0066C53.5652 76.9246 53.5972 76.8469 53.6427 76.7779C53.6881 76.709 53.7461 76.6501 53.8134 76.6046C53.8806 76.5592 53.9557 76.5282 54.0344 76.5133C54.1843 76.4559 54.3498 76.4626 54.495 76.5321C54.6402 76.6016 54.7534 76.7281 54.8102 76.8845Z" fill="#111111"/>
<path d="M87.0049 6.41582C85.7462 4.9379 84.1672 3.79835 82.4009 3.09302C80.6355 2.29464 78.7647 1.78212 76.8524 1.57302C74.9238 1.39022 72.9812 1.45551 71.0678 1.76744C69.1943 1.91055 67.3797 2.51619 65.7723 3.53488C64.1542 4.57404 62.7635 5.95924 61.691 7.60002C60.5203 9.23925 59.5408 11.0193 58.7734 12.9024C57.9952 14.7677 57.358 16.6943 56.8677 18.6642C56.3955 20.6791 55.7884 22.7294 55.1812 24.7089C53.8995 28.668 52.837 32.6978 51.5216 36.6215C50.2061 40.5452 48.7558 44.469 47.6764 48.3927C46.5971 52.3165 45.737 56.4523 46.9513 60.2877C48.1655 64.123 51.1168 67.057 52.9045 70.8923C52.9546 70.9678 52.9886 71.0538 53.004 71.1444C53.0194 71.2349 53.0158 71.3279 52.9936 71.4169C52.9714 71.5059 52.9311 71.5888 52.8754 71.6598C52.8197 71.7309 52.7499 71.7885 52.6709 71.8286C52.5919 71.8687 52.5056 71.8903 52.4178 71.8921C52.3301 71.8939 52.243 71.8756 52.1626 71.8387C52.0822 71.8018 52.0104 71.7471 51.9522 71.6783C51.8939 71.6095 51.8506 71.5283 51.8252 71.4402C50.1387 67.9053 47.0356 64.8653 45.7707 60.6058C45.2112 58.5149 45.0001 56.3384 45.1467 54.1723C45.244 52.0361 45.6011 49.9216 46.2092 47.8802C47.4235 43.8327 48.7389 39.9443 50.0712 36.0029C51.4035 32.0615 53.0731 28.2792 54.1693 24.3024C54.7393 22.3226 55.201 20.3103 55.5523 18.2754C55.9426 16.1828 56.5417 14.139 57.3399 12.1777C58.146 10.2011 59.1644 8.32732 60.3756 6.59257C61.6766 4.88769 63.2312 3.41361 64.9796 2.22697C66.7545 1.08519 68.7574 0.389506 70.8317 0.194407C72.8598 -0.0530835 74.9085 -0.0530835 76.9367 0.194407C81.1284 0.469932 85.0562 2.43314 87.8987 5.6735C88.008 5.79211 88.069 5.95052 88.069 6.11536C88.069 6.2802 88.008 6.43861 87.8987 6.55722C87.8438 6.61601 87.7782 6.66271 87.7058 6.69459C87.6334 6.72647 87.5557 6.74289 87.4771 6.74289C87.3986 6.74289 87.3209 6.72647 87.2485 6.69459C87.1761 6.66271 87.1105 6.61601 87.0555 6.55722L87.0049 6.41582Z" fill="#111111"/>
<path d="M62.3994 93.6747C60.6985 91.1604 59.6786 88.2105 59.4481 85.1379C59.3469 83.6356 59.4481 82.0979 59.3469 80.5956" stroke="#111111" stroke-width="0.25" stroke-linecap="round" stroke-linejoin="round"/>
<path d="M63.58 92.19C61.9547 90.1597 61.0648 87.5937 61.0671 84.9435" stroke="#111111" stroke-width="0.25" stroke-linecap="round" stroke-linejoin="round"/>
<path d="M124.664 149.491C123.152 147.783 121.921 145.824 121.021 143.693C119.098 139.628 116.366 133.301 112.167 125.365C107.968 117.429 105.725 112.374 104.038 108.539C102.352 104.704 101.627 101.664 99.2993 98.4468C94.6953 92.0663 87.7301 92.4728 83.8007 92.6849C79.8712 92.897 73.3951 97.5277 73.3951 97.5277C60.8478 109.228 32.3971 144.118 32.3971 144.118L25.8198 160.838H39.1261L41.5883 152.743C41.5883 152.743 62.1633 132.028 62.0621 131.746L60.7972 128.794C66.7167 139.982 66.3794 172.167 66.3794 172.167H98.5741L103.853 137.755C105.492 144.064 107.753 150.177 110.599 155.995C111.965 158.841 115.068 160.254 117.513 163.277L119.739 164.921L126.856 167.908L135.053 169.021L143.67 168.332L144.412 165.893C144.412 165.61 145.323 163.383 145.323 163.383L146.335 161.615C146.335 161.615 145.036 160.838 144.901 160.838" fill="#6C246D"/>
<path d="M143.974 166.334C143.755 167.024 143.35 168.42 143.35 168.42L134.715 169.109L126.485 167.996L119.419 164.956L117.21 163.312C114.781 160.29 111.661 158.876 110.295 156.03C109.469 154.263 108.727 152.672 108.086 151.117C112.302 156.207 125.338 169.551 143.974 166.334Z" fill="#C3268A"/>
<path opacity="0.5" d="M68.5887 169.109H66.9022C67.0692 156.711 65.5531 144.351 62.3993 132.399C62.2262 131.86 62.1075 131.303 62.0452 130.738H62.8884H63.7316C63.7316 130.879 63.8666 131.339 64.0352 132.028C67.2183 144.101 68.7514 156.585 68.5887 169.109Z" fill="#C3268A"/>
<g opacity="0.5">
<path opacity="0.5" d="M103.144 137.348L98.3717 171.442H66.177V169.887C78.3364 166.264 93.599 165.946 96.6684 146.698C97.2755 142.916 101.188 140.618 103.144 137.348Z" fill="#C3268A"/>
</g>
<path d="M29.1255 157.073L33.5609 145.585L45.5011 131.304L44.8097 130.738L50.2064 124.605L62.3827 110.925" stroke="#F3A0CA" stroke-width="1.5" stroke-linecap="round" stroke-linejoin="round"/>
<path d="M44.0508 150.251L60.5951 129.766L61.5058 131.286V132.4L58.8749 136.27L44.0508 150.251Z" fill="#C3268A"/>
<path d="M60.7974 112.516L71.0511 101.222" stroke="white" stroke-linecap="round" stroke-linejoin="round"/>
<path d="M104.308 131.215V133.849L104.14 136.535L103.516 141.838L102.048 152.213C101.003 159.123 100.092 166.052 99.097 172.962C99.0771 173.103 99.0103 173.232 98.9084 173.326C98.8065 173.419 98.6761 173.472 98.5405 173.475C95.859 173.475 93.1775 173.475 90.496 173.475H82.4516C77.0886 173.475 71.7256 173.652 66.3458 173.599C66.2735 173.599 66.2019 173.584 66.1353 173.554C66.0687 173.524 66.0084 173.481 65.9581 173.427C65.9077 173.372 65.8683 173.308 65.8422 173.237C65.8161 173.167 65.8038 173.091 65.8061 173.015C65.8061 165.698 65.5194 158.363 64.8617 151.081C64.5244 147.44 64.069 143.817 63.4282 140.229C62.8974 136.642 61.875 133.153 60.3925 129.872C60.3664 129.82 60.3505 129.763 60.3458 129.704C60.341 129.646 60.3474 129.587 60.3647 129.531C60.382 129.475 60.4098 129.423 60.4464 129.378C60.483 129.334 60.5278 129.297 60.578 129.271C60.6277 129.244 60.6822 129.227 60.7381 129.222C60.794 129.217 60.8503 129.224 60.9037 129.242C60.9572 129.26 61.0066 129.289 61.0491 129.328C61.0916 129.366 61.1264 129.413 61.1514 129.465C62.7509 132.807 63.8597 136.382 64.4401 140.07C65.1227 143.694 65.6293 147.351 65.9579 151.028C66.6325 158.363 66.9192 165.716 66.9023 173.086L66.3458 172.503C71.7256 172.503 77.0886 172.662 82.4516 172.644H90.496C93.1775 172.644 95.859 172.538 98.5405 172.538L97.9839 173.051C98.9284 166.122 99.9571 159.212 100.834 152.283L102.284 141.891L103.111 136.712L103.33 134.185V131.215C103.334 131.087 103.386 130.966 103.474 130.877C103.562 130.788 103.68 130.738 103.802 130.738C103.866 130.731 103.931 130.737 103.992 130.758C104.053 130.779 104.11 130.813 104.157 130.858C104.205 130.903 104.243 130.958 104.269 131.02C104.295 131.081 104.309 131.148 104.308 131.215Z" fill="#111111"/>
<path d="M56.5137 115.397C61.0671 110.094 65.57 105.022 69.3477 101.08C72.554 97.66 76.5517 95.1693 80.9506 93.8515C81.8624 93.5675 82.8012 93.3897 83.7502 93.3212C87.6796 93.1091 93.869 91.2356 98.4225 97.5985C100.451 100.436 102.087 103.56 103.279 106.878" stroke="#111111" stroke-width="0.75" stroke-linecap="round" stroke-linejoin="round"/>
<path d="M47.5923 126.001C49.0595 124.234 50.5605 122.466 52.0952 120.699" stroke="#111111" stroke-width="0.75" stroke-linecap="round" stroke-linejoin="round"/>
<path d="M32.0429 161.439H25.803L32.3802 144.736C32.3802 144.736 37.5577 138.197 44.4722 129.766" stroke="#111111" stroke-width="0.75" stroke-linecap="round" stroke-linejoin="round"/>
<path d="M61.7756 132.753C61.8768 133.036 41.538 153.344 41.538 153.344L39.1263 161.439H34.2861" stroke="#111111" stroke-width="0.75" stroke-linecap="round" stroke-linejoin="round"/>
<path d="M63.2596 42.4187C63.2596 42.4187 62.6862 59.3685 67.8468 69.6904C73.0074 80.0123 78.9437 85.7919 86.9039 85.7919C94.864 85.7919 104.072 80.1714 106.197 66.35C107.647 56.9471 109.57 55.7453 108.98 37.9647C108.98 37.9647 90.8502 31.3368 87.882 12.054C87.882 12.054 80.0062 42.348 56.5137 42.348" fill="#F8C5A6"/>
<path d="M80.6807 84.1482C75.908 81.7975 71.9448 76.8133 68.3526 69.6197C63.192 59.2978 63.7486 42.4187 63.7486 42.4187H57.0027C61.2947 42.445 65.5255 41.3517 69.3139 39.2373C68.3864 49.3825 67.931 72.2002 80.6807 84.1482Z" fill="#FFE5D5"/>
<path d="M87.6965 15.0586C87.6965 15.0586 90.3612 30.5945 108.103 38.7778C108.103 38.7778 109.081 70.7862 98.1864 80.0654" stroke="#F57A59" stroke-linecap="round" stroke-linejoin="round"/>
<path d="M68.9766 50.3546C70.0664 50.3546 70.9498 49.4287 70.9498 48.2867C70.9498 47.1446 70.0664 46.2188 68.9766 46.2188C67.8868 46.2188 67.0034 47.1446 67.0034 48.2867C67.0034 49.4287 67.8868 50.3546 68.9766 50.3546Z" fill="#FFE6D7"/>
<path d="M71.3883 46.5376C71.8261 46.5376 72.181 46.1655 72.181 45.7065C72.181 45.2475 71.8261 44.8754 71.3883 44.8754C70.9506 44.8754 70.5957 45.2475 70.5957 45.7065C70.5957 46.1655 70.9506 46.5376 71.3883 46.5376Z" fill="#FFE6D7"/>
<path d="M72.0797 43.2498C72.3591 43.2498 72.5856 43.0123 72.5856 42.7193C72.5856 42.4263 72.3591 42.1888 72.0797 42.1888C71.8003 42.1888 71.5737 42.4263 71.5737 42.7193C71.5737 43.0123 71.8003 43.2498 72.0797 43.2498Z" fill="#FFE6D7"/>
<path d="M69.9041 44.0094C70.4164 44.0094 70.8317 43.5742 70.8317 43.0373C70.8317 42.5004 70.4164 42.0652 69.9041 42.0652C69.3918 42.0652 68.9766 42.5004 68.9766 43.0373C68.9766 43.5742 69.3918 44.0094 69.9041 44.0094Z" fill="#FFE6D7"/>
<path d="M69.5164 54.6848C70.1218 54.6848 70.6126 54.1704 70.6126 53.5359C70.6126 52.9014 70.1218 52.3871 69.5164 52.3871C68.911 52.3871 68.4202 52.9014 68.4202 53.5359C68.4202 54.1704 68.911 54.6848 69.5164 54.6848Z" fill="#FFE6D7"/>
<path d="M71.4559 51.2211C71.7446 51.2211 71.9787 50.9757 71.9787 50.6729C71.9787 50.3702 71.7446 50.1248 71.4559 50.1248C71.1672 50.1248 70.9331 50.3702 70.9331 50.6729C70.9331 50.9757 71.1672 51.2211 71.4559 51.2211Z" fill="#FFE6D7"/>
<path d="M63.2259 49.6652C62.8833 48.9724 62.3934 48.3714 61.7939 47.9086C61.1945 47.4459 60.5015 47.1337 59.7686 46.9963C59.0812 46.7489 58.3492 46.6681 57.6277 46.7599C56.9062 46.8517 56.2139 47.1139 55.603 47.5266C54.9788 48.1511 54.5259 48.9397 54.2916 49.8102C54.0572 50.6807 54.05 51.6011 54.2707 52.4754C54.5743 54.2429 55.3332 55.922 55.603 57.7778C55.8729 59.6336 55.7548 61.7722 57.1377 62.9034C57.7457 63.2978 58.4465 63.5067 59.1615 63.5067C59.8765 63.5067 60.5773 63.2978 61.1852 62.9034C62.4501 62.2141 63.4957 61.1359 64.7606 60.4466" fill="#F8C5A6"/>
<path d="M59.1108 62.4439C57.1713 61.1714 57.4243 58.1667 56.9015 56.0458C56.1257 53.3239 54.0007 48.6402 58.2844 47.9155C59.077 47.7741 58.7397 46.5016 57.9471 46.6253C54.3886 47.2262 54.0345 50.3723 54.8103 53.5713C55.1138 54.8616 55.6535 56.0635 55.9402 57.3537C56.2269 58.6439 55.9402 59.5983 56.1763 60.7825C56.4293 62.2495 57.3062 62.8328 58.4699 63.5928C59.1614 64.0523 59.8022 62.9035 59.1108 62.4439Z" fill="#F57A59"/>
<path d="M57.8123 40.4922C57.8123 40.4922 76.3634 42.1712 85.757 12.6195" stroke="#9B63FF" stroke-width="2" stroke-linecap="round" stroke-linejoin="round"/>
<path d="M65.6711 36.975C72.5391 33.3294 77.9957 27.3111 81.1192 19.9368L65.6711 36.975Z" fill="#B994FC"/>
<path d="M65.5195 36.6568C68.8687 34.8216 71.9151 32.4346 74.5421 29.587C77.2083 26.7545 79.3776 23.4519 80.9507 19.8307C80.9797 19.7718 81.0286 19.7265 81.0879 19.7036C81.1472 19.6807 81.2126 19.6819 81.2711 19.707C81.3004 19.7203 81.3268 19.7397 81.3487 19.764C81.3706 19.7883 81.3876 19.817 81.3986 19.8484C81.4097 19.8798 81.4145 19.9132 81.4129 19.9466C81.4113 19.98 81.4032 20.0127 81.3891 20.0428C79.829 23.7284 77.685 27.1107 75.048 30.0465C72.4127 33.0451 69.2671 35.5026 65.7724 37.2931C65.6919 37.3353 65.5987 37.3422 65.5133 37.3124C65.4279 37.2825 65.3573 37.2184 65.3171 37.134C65.2768 37.0496 65.2702 36.9519 65.2987 36.8624C65.3271 36.7729 65.3884 36.699 65.4689 36.6568H65.5195Z" fill="#111111"/>
<path d="M70.6294 29.0922C72.2983 28.0188 73.8143 26.7038 75.1323 25.1861C76.4275 23.6359 77.5115 21.905 78.3534 20.0428C78.3677 20.0092 78.3885 19.9791 78.4145 19.9544C78.4405 19.9296 78.4712 19.9109 78.5045 19.8992C78.5378 19.8876 78.5731 19.8833 78.608 19.8868C78.643 19.8902 78.6769 19.9012 78.7076 19.9191C78.7691 19.9531 78.8157 20.0107 78.8377 20.0799C78.8597 20.149 78.8554 20.2244 78.8256 20.2903C77.9836 22.1971 76.9063 23.9798 75.6213 25.5926C74.2918 27.1972 72.7466 28.5904 71.0341 29.7285C70.9924 29.7574 70.9455 29.7773 70.8962 29.7867C70.8469 29.7962 70.7964 29.7951 70.7475 29.7836C70.6987 29.772 70.6526 29.7502 70.612 29.7195C70.5714 29.6887 70.5371 29.6497 70.5113 29.6047C70.4829 29.5621 70.463 29.5138 70.4527 29.4629C70.4423 29.412 70.4419 29.3594 70.4513 29.3084C70.4608 29.2573 70.4799 29.2087 70.5076 29.1655C70.5353 29.1223 70.571 29.0853 70.6125 29.0568L70.6294 29.0922Z" fill="#111111"/>
<path d="M88.877 12.054C88.877 12.3191 90.4454 28.067 109.115 36.321" stroke="#9B63FF" stroke-width="2" stroke-linecap="round" stroke-linejoin="round"/>
<path d="M117.868 8.8372L118.441 8.64278C119.976 8.11255 119.318 5.54975 117.766 6.07998L117.21 6.2744C115.658 6.80464 116.316 9.36744 117.868 8.8372Z" fill="white"/>
<path d="M50.105 59.4746C48.857 56.7528 49.5991 52.5109 50.105 49.6476C50.2568 48.8169 49.0425 48.4634 48.8908 49.2941C48.2668 52.6346 47.5416 56.9648 48.9919 60.1463C49.3461 60.9063 50.4423 60.1463 50.0882 59.4746H50.105Z" fill="white"/>
<path d="M49.8689 62.709C50.1811 63.4053 50.5477 64.0733 50.9651 64.7062C51.4373 65.4132 52.5335 64.7062 52.0613 64.0346C51.6374 63.406 51.2704 62.7374 50.9651 62.0373C50.6109 61.2773 49.5147 61.949 49.8689 62.709Z" fill="white"/>
<path d="M57.7109 26.5117C58.8332 23.7799 59.6263 20.9122 60.072 17.9749C60.2238 17.1442 59.0095 16.7907 58.8577 17.6214C58.4336 20.4468 57.6803 23.207 56.6147 25.84C56.2774 26.6 57.3736 27.2893 57.7109 26.5117Z" fill="white"/>
<path d="M60.9153 15.0763C61.0512 14.4093 61.2784 13.7663 61.5899 13.1675C61.9947 12.4252 60.8985 11.7535 60.5106 12.4959C60.1398 13.1934 59.8672 13.9435 59.7011 14.7228C59.5324 15.5535 60.7467 15.907 60.9153 15.0763Z" fill="white"/>
<path d="M58.1494 52.2811C59.0264 53.5537 60.0383 54.7909 61.0502 55.9751" stroke="#111111" stroke-width="0.5" stroke-linecap="round" stroke-linejoin="round"/>
<path d="M61.0501 52.2811C60.1225 53.5537 59.3636 55.71 58.4192 56.8942" stroke="#111111" stroke-width="0.5" stroke-linecap="round" stroke-linejoin="round"/>
<path d="M76.4645 36.8689C76.8683 36.6349 77.2471 36.3564 77.5945 36.0382C78.2185 35.4903 77.3246 34.5535 76.7006 35.1015C76.4329 35.3436 76.1385 35.5512 75.8237 35.7201C75.1154 36.1266 75.8237 37.2754 76.4645 36.8689Z" fill="white"/>
<path d="M79.7195 34.0056C82.2078 31.4627 84.2362 28.4687 85.7065 25.1683C86.0606 24.3907 84.9644 23.719 84.6103 24.4967C83.181 27.6692 81.222 30.5484 78.8257 32.9981C78.2523 33.5814 79.1461 34.5358 79.7195 33.9349V34.0056Z" fill="white"/>
<path d="M65.0472 56.3816C65.0051 56.7987 65.0051 57.2193 65.0472 57.6365C65.1484 58.4848 66.4133 58.4848 66.3121 57.6365C66.2699 57.2193 66.2699 56.7987 66.3121 56.3816C66.3121 55.5155 65.0978 55.5332 65.0472 56.3816Z" fill="white"/>
<path d="M65.5868 60.8002C66.2979 64.3483 67.5934 67.7395 69.4151 70.8216C69.8536 71.5463 70.933 70.8216 70.5113 70.15C68.7443 67.1689 67.4939 63.8839 66.818 60.4467C66.6493 59.616 65.435 59.9695 65.5868 60.8002Z" fill="white"/>
<path d="M64.9122 61.4188C65.5897 64.1402 66.4752 66.7999 67.56 69.3723C68.63 71.9466 69.9406 74.4036 71.4726 76.7072C72.95 79.0297 74.7918 81.0734 76.9199 82.7519C79.0853 84.3381 81.554 85.4116 84.1548 85.898C84.3196 85.9323 84.4649 86.033 84.5595 86.1784C84.6541 86.3238 84.6905 86.5024 84.6608 86.6757C84.6242 86.8461 84.5273 86.9957 84.3895 87.0942C84.2518 87.1926 84.0835 87.2325 83.9187 87.2059C81.1228 86.6715 78.467 85.5208 76.1272 83.8301C73.8704 82.0715 71.8607 79.9891 70.1571 77.644C68.5028 75.2843 67.1003 72.7417 65.9747 70.0616C64.8387 67.418 63.93 64.6735 63.2595 61.8607C63.2132 61.6337 63.2523 61.3968 63.3685 61.1993C63.4847 61.0017 63.6692 60.8588 63.8834 60.8002C64.098 60.7465 64.3241 60.783 64.5133 60.9019C64.7024 61.0209 64.8396 61.2128 64.8953 61.4365L64.9122 61.4188Z" fill="#9B63FF"/>
<path d="M110.801 46.5192C110.825 50.4038 110.577 54.2849 110.059 58.1314C109.572 61.9881 108.736 65.7875 107.563 69.4784C106.353 73.1982 104.57 76.685 102.284 79.8003C99.9304 82.9572 96.6836 85.2525 93.0089 86.3575C92.9292 86.3816 92.8457 86.3888 92.7633 86.3787C92.6808 86.3686 92.6012 86.3413 92.5289 86.2985C92.4567 86.2557 92.3933 86.1983 92.3425 86.1295C92.2918 86.0607 92.2546 85.982 92.2331 85.898C92.1863 85.7269 92.2061 85.5433 92.2883 85.3876C92.3706 85.2318 92.5084 85.1166 92.6716 85.0673C96.0926 84.0536 99.1094 81.9086 101.273 78.9519C102.373 77.4847 103.328 75.9035 104.123 74.2328C104.878 72.5092 105.532 70.7384 106.079 68.9305C107.172 65.3227 107.957 61.62 108.423 57.8663C108.922 54.1131 109.153 50.3261 109.115 46.5369C109.115 46.3025 109.204 46.0778 109.362 45.912C109.52 45.7463 109.734 45.6532 109.958 45.6532C110.182 45.6532 110.396 45.7463 110.554 45.912C110.712 46.0778 110.801 46.3025 110.801 46.5369V46.5192Z" fill="#9B63FF"/>
<path d="M63.2259 49.6652C62.8833 48.9724 62.3934 48.3714 61.7939 47.9086C61.1945 47.4459 60.5015 47.1337 59.7686 46.9963C59.0812 46.7489 58.3492 46.6681 57.6277 46.7599C56.9062 46.8517 56.2139 47.1139 55.603 47.5266C54.9788 48.1511 54.5259 48.9397 54.2916 49.8102C54.0572 50.6807 54.05 51.6011 54.2707 52.4754C54.5743 54.2429 55.3332 55.922 55.603 57.7778C55.8729 59.6336 55.7548 61.7722 57.1377 62.9034C57.7457 63.2978 58.4465 63.5067 59.1615 63.5067C59.8765 63.5067 60.5773 63.2978 61.1852 62.9034C62.4501 62.2141 63.4957 61.1359 64.7606 60.4466" stroke="#111111" stroke-width="0.5" stroke-linecap="round" stroke-linejoin="round"/>
<path d="M92.6545 52.2811L95.6059 63.4337" stroke="#111111" stroke-width="0.5" stroke-linecap="round" stroke-linejoin="round"/>
<path d="M84.7957 82.4514C84.6776 82.4514 83.5983 91.4301 83.0249 96.3082C82.8596 97.5877 83.178 98.8841 83.9122 99.921C84.6463 100.958 85.738 101.653 86.9544 101.858H87.0724C87.7046 101.911 88.3405 101.829 88.9416 101.617C89.5427 101.405 90.0965 101.067 90.5694 100.624C91.0424 100.182 91.4247 99.6428 91.6933 99.0407C91.9619 98.4385 92.111 97.7856 92.1318 97.1212L92.8064 83.2644" fill="#F8C5A6"/>
<path d="M84.6609 86.1808C86.5111 86.9223 88.4536 87.3807 90.4286 87.5417L91.744 98.005L92.7559 84.7314L84.6609 86.1808Z" fill="#F57A59"/>
<path d="M84.3235 85.4914C84.2054 85.4914 83.4297 92.2254 82.9743 96.3082C82.8138 97.5849 83.1344 98.8769 83.8681 99.9098C84.6018 100.943 85.6908 101.635 86.9038 101.84H87.0218C87.6535 101.891 88.2885 101.807 88.8885 101.594C89.4886 101.381 90.0414 101.043 90.5139 100.601C90.9863 100.159 91.3687 99.6208 91.638 99.0198C91.9074 98.4189 92.0581 97.7671 92.0813 97.1036L92.6715 84.7314" stroke="#111111" stroke-width="0.75" stroke-linecap="round" stroke-linejoin="round"/>
<path d="M63.2596 42.4187C63.2596 42.4187 62.6862 59.3685 67.8468 69.6904C73.0073 80.0123 78.9437 85.7919 86.9039 85.7919C90.4662 85.7453 93.9427 84.6391 96.9284 82.6021C99.9141 80.5651 102.286 77.681 103.769 74.2858C106.686 68.0644 107.951 58.3788 108.474 54.1016C109.051 48.739 109.192 43.3347 108.895 37.9471C108.895 37.9471 90.8502 31.2484 87.882 11.9656C87.882 11.9656 80.0062 42.2596 56.5137 42.2596" stroke="#111111" stroke-width="0.75" stroke-linecap="round" stroke-linejoin="round"/>
<path d="M103.954 138.32C105.438 143.287 109.132 154.899 111.982 157.886C115.675 161.757 118.255 167.43 132.422 168.844C136.242 169.27 140.101 169.097 143.873 168.332C144.221 165.977 145.062 163.731 146.335 161.757L125.642 150.516L122.438 147.158L104.123 109.087" stroke="#111111" stroke-width="0.75" stroke-linecap="round" stroke-linejoin="round"/>
<path d="M93.7339 98.2701L95.6059 102.989L92.8401 105.057L85.7569 104.721L79.6013 100.833L81.7937 96.9092L87.241 99.2069L93.7339 98.2701Z" fill="#863987"/>
<path d="M81.1194 96.2021C81.1194 96.2021 84.9477 101.504 94.6111 97.9696L81.1194 96.2021Z" fill="#FF61BF"/>
<path d="M24.3191 172.202L22.835 157.656C22.835 157.656 38.1144 157.992 42.2125 159.548L39.7503 172.202" fill="#FBB63A"/>
<path d="M38.5527 171.054C38.8732 170.718 40.762 160.59 40.762 160.59" stroke="#D08600" stroke-miterlimit="10"/>
<path d="M24.3191 172.202L22.835 157.656C22.835 157.656 38.1144 157.992 42.2125 159.548L39.7503 172.202" stroke="#111111" stroke-width="0.75" stroke-linecap="round" stroke-linejoin="round"/>
<path d="M23.5938 163.012L36.8663 163.79" stroke="#111111" stroke-width="0.5" stroke-linecap="round" stroke-linejoin="round"/>
<path d="M150.635 172.167C154.808 172.167 158.191 168.622 158.191 164.249C158.191 159.876 154.808 156.331 150.635 156.331C146.463 156.331 143.08 159.876 143.08 164.249C143.08 168.622 146.463 172.167 150.635 172.167Z" fill="#F8C5A6"/>
<path d="M158.191 164.921C158.191 167.021 157.395 169.035 155.978 170.52C154.561 172.004 152.639 172.839 150.635 172.839C150.349 172.856 150.062 172.856 149.775 172.839C151.626 172.633 153.339 171.716 154.584 170.266C155.829 168.815 156.518 166.933 156.518 164.982C156.518 163.032 155.829 161.15 154.584 159.699C153.339 158.249 151.626 157.332 149.775 157.126C150.062 157.109 150.349 157.109 150.635 157.126C152.619 157.126 154.523 157.943 155.937 159.401C157.35 160.86 158.16 162.842 158.191 164.921Z" fill="#F57A59"/>
<path d="M150.635 172.803C154.808 172.803 158.191 169.258 158.191 164.885C158.191 160.512 154.808 156.967 150.635 156.967C146.463 156.967 143.08 160.512 143.08 164.885C143.08 169.258 146.463 172.803 150.635 172.803Z" stroke="#111111" stroke-width="0.75" stroke-linecap="round" stroke-linejoin="round"/>
<path d="M149.959 163.648C150.499 162.266 150.022 160.753 148.893 160.268C147.764 159.783 146.411 160.51 145.87 161.892C145.33 163.274 145.807 164.787 146.936 165.272C148.065 165.757 149.418 165.03 149.959 163.648Z" fill="#FFE5D5"/>
<path d="M25.0105 157.939C25.0105 158.116 25.196 160.237 25.196 160.237" stroke="#111111" stroke-width="0.25" stroke-linecap="round" stroke-linejoin="round"/>
<path d="M26.8486 157.939C26.8486 158.116 27.0342 160.237 27.0342 160.237" stroke="#111111" stroke-width="0.25" stroke-linecap="round" stroke-linejoin="round"/>
<path d="M32.0431 157.939C32.0431 158.116 31.7395 160.59 31.7395 160.59" stroke="#111111" stroke-width="0.25" stroke-linecap="round" stroke-linejoin="round"/>
<path d="M34.1004 158.116C34.1004 158.293 33.7969 160.767 33.7969 160.767" stroke="#111111" stroke-width="0.25" stroke-linecap="round" stroke-linejoin="round"/>
<path d="M36.2928 158.275C36.2928 158.434 35.9893 160.909 35.9893 160.909" stroke="#111111" stroke-width="0.25" stroke-linecap="round" stroke-linejoin="round"/>
<path d="M38.5526 158.522C38.5526 158.682 38.249 161.156 38.249 161.156" stroke="#111111" stroke-width="0.25" stroke-linecap="round" stroke-linejoin="round"/>
<path d="M40.0538 159.07C40.0538 159.229 39.7502 161.704 39.7502 161.704" stroke="#111111" stroke-width="0.25" stroke-linecap="round" stroke-linejoin="round"/>
<path d="M29.1255 157.939C29.1255 158.116 29.311 160.237 29.311 160.237" stroke="#111111" stroke-width="0.25" stroke-linecap="round" stroke-linejoin="round"/>
<path d="M68.4202 131.657C69.1588 133.2 70.3049 134.489 71.722 135.369C73.1391 136.25 74.7677 136.685 76.414 136.624C79.7124 136.437 82.9134 135.386 85.7234 133.566" stroke="#111111" stroke-width="0.5" stroke-linecap="round" stroke-linejoin="round"/>
<path d="M93.9871 135.104C96.8835 134.152 99.5518 132.561 101.812 130.438C102.925 129.37 103.804 128.061 104.386 126.602C104.968 125.144 105.241 123.57 105.185 121.989C104.932 118.454 102.588 115.379 100.682 112.339C99.0411 109.706 97.6836 106.89 96.6348 103.944" stroke="#111111" stroke-width="0.5" stroke-linecap="round" stroke-linejoin="round"/>
<path d="M86.1785 46.6959C84.7512 45.629 82.9939 45.1622 81.254 45.388C79.5199 45.644 77.9049 46.4594 76.6331 47.7211C76.2467 48.1903 75.7618 48.5593 75.2164 48.7992C74.9662 48.8584 74.7064 48.857 74.4567 48.7952C74.2071 48.7333 73.9742 48.6125 73.7758 48.4421C73.5774 48.2717 73.4187 48.056 73.3118 47.8117C73.2049 47.5673 73.1527 47.3005 73.159 47.0317" stroke="#111111" stroke-width="0.5" stroke-linecap="round" stroke-linejoin="round"/>
<path d="M75.8913 48.0921C75.6896 47.9711 75.514 47.8077 75.3755 47.6121C75.2369 47.4166 75.1384 47.1932 75.0862 46.9558C75.0339 46.7185 75.029 46.4724 75.0718 46.233C75.1146 45.9937 75.2041 45.7661 75.3348 45.5647" stroke="#111111" stroke-width="0.5" stroke-linecap="round" stroke-linejoin="round"/>
<path d="M96.1289 46.1303C96.4434 45.5208 96.9173 45.0181 97.4949 44.681C98.342 44.071 99.3352 43.722 100.362 43.6736C101.285 43.7264 102.19 43.9665 103.027 44.3806C103.857 44.8048 104.754 45.0682 105.674 45.1582C106.118 45.1786 106.559 45.0786 106.955 44.8681C107.351 44.6575 107.688 44.3435 107.934 43.9564" stroke="#111111" stroke-width="0.5" stroke-linecap="round" stroke-linejoin="round"/>
<path d="M103.549 44.5042C104.135 44.5005 104.712 44.3553 105.236 44.08C105.489 43.9311 105.701 43.7161 105.852 43.456C106.003 43.1959 106.087 42.8995 106.096 42.5953" stroke="#111111" stroke-width="0.5" stroke-linecap="round" stroke-linejoin="round"/>
<path d="M29.6144 170.965C29.9919 171.359 30.3001 171.82 30.5251 172.326C30.6135 172.912 30.6135 173.508 30.5251 174.094C30.5282 174.716 30.7246 175.32 31.0847 175.815C31.4447 176.31 31.9487 176.668 32.5205 176.836C33.0922 177.004 33.7006 176.972 34.2534 176.745C34.8062 176.518 35.2735 176.108 35.5845 175.578C35.8378 175.122 35.9712 174.604 35.9712 174.076C35.9712 173.548 35.8378 173.03 35.5845 172.574V172.326C35.5664 172.13 35.5027 171.942 35.399 171.778C35.1629 171.442 34.6907 171.354 34.4208 171.054C34.151 170.753 34.269 169.728 34.3365 169.021C34.3887 168.403 34.243 167.784 33.9223 167.262C33.6017 166.741 33.1244 166.346 32.5657 166.14C31.984 165.986 31.3707 166.025 30.8115 166.253C30.2522 166.481 29.7748 166.887 29.4457 167.413C29.1416 167.958 28.9956 168.584 29.0256 169.215C29.0555 169.846 29.2601 170.454 29.6144 170.965Z" fill="white"/>
<path d="M225.228 183.125H16.6792V245.516H225.228V183.125Z" fill="#F57A59"/>
<path d="M225.228 183.125H16.6792V191.344H225.228V183.125Z" fill="#EE4517"/>
<path d="M225.228 183.125H16.6792V245.516H225.228V183.125Z" stroke="#111111" stroke-linecap="round" stroke-linejoin="round"/>
<path d="M34.4377 179.52H39.9019" stroke="#111111" stroke-linecap="round" stroke-linejoin="round"/>
<path d="M243.712 172.45H0.843262V186.625H243.712V172.45Z" fill="#F57A59"/>
<path d="M243.644 183.125H0.927002V186.607H243.644V183.125Z" fill="#EE4517"/>
<path d="M107.023 178.053H0.927002V172.45H112.386C112.381 173.938 111.814 175.363 110.809 176.413C109.804 177.463 108.442 178.053 107.023 178.053Z" fill="#FF9A80"/>
<path d="M0.927002 179.52H28.2984" stroke="#111111" stroke-width="0.75" stroke-linecap="round" stroke-linejoin="round"/>
<path d="M32.7344 179.52H36.3097" stroke="#111111" stroke-width="0.75" stroke-linecap="round" stroke-linejoin="round"/>
<path d="M2.44531 174.359H91.7776" stroke="white" stroke-width="2" stroke-linecap="round" stroke-linejoin="round"/>
<path d="M243.712 172.45H0.843262V186.625H243.712V172.45Z" stroke="#111111" stroke-linecap="round" stroke-linejoin="round"/>
<path d="M28.2991 186.607V245.516" stroke="#111111" stroke-width="0.75" stroke-linecap="round" stroke-linejoin="round"/>
<path d="M214.351 186.607V245.516" stroke="#111111" stroke-width="0.75" stroke-linecap="round" stroke-linejoin="round"/>
<path d="M20.6255 199.404C21.3928 197.368 22.3953 195.439 23.6105 193.659" stroke="#111111" stroke-width="0.26" stroke-linecap="round" stroke-linejoin="round"/>
<path d="M20.0186 197.654C20.4127 195.809 21.1335 194.059 22.1435 192.493" stroke="#111111" stroke-width="0.26" stroke-linecap="round" stroke-linejoin="round"/>
<path d="M170.114 209.195C170.46 208.154 170.859 207.133 171.312 206.137C171.696 205.097 172.322 204.173 173.133 203.451C172.662 204.421 172.144 205.365 171.581 206.279C171.059 207.216 170.603 208.205 170.114 209.195C170.114 209.213 170.114 209.195 170.114 209.195Z" fill="#111111"/>
<path d="M169.507 207.463C169.646 206.521 169.878 205.597 170.198 204.706C170.446 203.772 170.943 202.931 171.632 202.284C171.292 203.15 170.903 203.994 170.468 204.812C170.096 205.668 169.775 206.547 169.507 207.445C169.507 207.445 169.49 207.481 169.507 207.463Z" fill="#111111"/>
<path d="M23.6106 240.108C23.0501 237.994 22.7497 235.815 22.7168 233.621" stroke="#111111" stroke-width="0.26" stroke-linecap="round" stroke-linejoin="round"/>
<path d="M22.0254 239.1C21.2875 237.377 20.8588 235.525 20.7605 233.639" stroke="#111111" stroke-width="0.26" stroke-linecap="round" stroke-linejoin="round"/>
<path d="M39.5309 229.98C38.3159 228.197 37.3188 226.261 36.5627 224.219" stroke="#111111" stroke-width="0.26" stroke-linecap="round" stroke-linejoin="round"/>
<path d="M37.8105 229.591C36.5437 228.237 35.526 226.649 34.8086 224.908" stroke="#111111" stroke-width="0.26" stroke-linecap="round" stroke-linejoin="round"/>
<path d="M177.855 236.538C177.231 235.672 176.607 234.77 176.051 233.833C175.423 232.927 175.023 231.869 174.887 230.758C175.427 231.73 175.882 232.685 176.321 233.674C176.759 234.664 177.333 235.583 177.872 236.538H177.855Z" fill="#111111"/>
<path d="M176.135 236.131C175.458 235.501 174.843 234.802 174.297 234.046C173.681 233.32 173.278 232.424 173.133 231.465C173.133 231.465 173.133 231.465 173.133 231.465C173.656 232.26 174.095 233.038 174.533 233.851C175.006 234.652 175.536 235.414 176.118 236.131C176.118 236.131 176.135 236.149 176.135 236.131Z" fill="#111111"/>
<path d="M21.7216 154.864L20.5074 156.172L19.7991 153.379L21.7216 153.591V154.864Z" fill="#F59B79"/>
<path d="M23.948 155.059C24.2926 155.059 24.572 154.766 24.572 154.405C24.572 154.043 24.2926 153.75 23.948 153.75C23.6033 153.75 23.324 154.043 23.324 154.405C23.324 154.766 23.6033 155.059 23.948 155.059Z" fill="#F59B79"/>
<path d="M17.3032 155.43C17.6478 155.43 17.9272 155.137 17.9272 154.776C17.9272 154.414 17.6478 154.121 17.3032 154.121C16.9586 154.121 16.6792 154.414 16.6792 154.776C16.6792 155.137 16.9586 155.43 17.3032 155.43Z" fill="#F59B79"/>
<path d="M19.4282 158.205C19.7728 158.205 20.0522 157.912 20.0522 157.551C20.0522 157.189 19.7728 156.896 19.4282 156.896C19.0836 156.896 18.8042 157.189 18.8042 157.551C18.8042 157.912 19.0836 158.205 19.4282 158.205Z" fill="#F59B79"/>
<path d="M20.0185 151.771C20.3631 151.771 20.6425 151.478 20.6425 151.117C20.6425 150.756 20.3631 150.463 20.0185 150.463C19.6739 150.463 19.3945 150.756 19.3945 151.117C19.3945 151.478 19.6739 151.771 20.0185 151.771Z" fill="#F59B79"/>
<path d="M105.287 138.055C105.287 138.055 109.115 151.117 111.813 154.775" stroke="#C3268A" stroke-linecap="round" stroke-linejoin="round"/>
<path d="M86.01 68.4179C86.4044 68.9746 86.9065 69.4379 87.4833 69.7776C88.0602 70.1172 88.6989 70.3255 89.3578 70.3889C90.0167 70.4522 90.6809 70.3693 91.3071 70.1454C91.9333 69.9215 92.5075 69.5617 92.992 69.0895C93.104 69.2129 93.2408 69.3086 93.3925 69.3697C93.5442 69.4308 93.7069 69.4559 93.869 69.443C94.2682 69.428 94.6571 69.3063 94.9989 69.0895C94.9989 69.0895 96.8203 71.069 99.5861 68.2588C99.5861 68.2588 98.0851 75.2225 92.8402 75.1695C91.2553 75.2803 89.6876 74.7702 88.4411 73.7383C87.1947 72.7063 86.3583 71.226 86.0943 69.5844C86.01 68.2588 86.01 68.4179 86.01 68.4179Z" fill="#FF3838"/>
<path d="M86.01 68.4179C86.4044 68.9746 86.9065 69.4379 87.4833 69.7776C88.0602 70.1172 88.6989 70.3255 89.3578 70.3889C90.0167 70.4522 90.6809 70.3693 91.3071 70.1454C91.9333 69.9215 92.5075 69.5617 92.992 69.0895C93.104 69.2129 93.2408 69.3086 93.3925 69.3697C93.5442 69.4308 93.7069 69.4559 93.869 69.443C94.2998 69.3956 94.7004 69.1888 94.9989 68.8597C94.9989 68.8597 96.8203 71.069 99.5861 68.2588C99.5861 68.2588 98.0851 75.2225 92.8402 75.1695C91.2553 75.2803 89.6876 74.7702 88.4411 73.7383C87.1947 72.7063 86.3583 71.226 86.0943 69.5844C86.01 68.2588 86.01 68.4179 86.01 68.4179Z" stroke="#202020" stroke-width="0.5" stroke-miterlimit="10"/>
<path d="M86.4822 69.3192C86.4822 69.3192 93.228 76.99 99.0295 69.3192" stroke="#202020" stroke-width="0.25" stroke-miterlimit="10"/>
<path d="M187.046 162.428H202.309" stroke="#111111" stroke-width="0.75" stroke-linecap="round" stroke-linejoin="round"/>
<path d="M205.26 162.428H208.717" stroke="#111111" stroke-width="0.75" stroke-linecap="round" stroke-linejoin="round"/>
<g opacity="0.4">
<path opacity="0.4" d="M72.0629 19.2651C72.6394 18.6613 73.0877 17.9367 73.3783 17.1386C73.6689 16.3406 73.7954 15.4872 73.7493 14.6344C73.6323 13.7578 73.2628 12.9396 72.6902 12.289C72.1177 11.6384 71.3693 11.1864 70.545 10.9934C69.8091 10.8635 69.0542 10.9209 68.3439 11.1609C67.6336 11.4008 66.9888 11.8162 66.4638 12.372C65.4007 13.4793 64.7439 14.9436 64.6087 16.5079C64.6122 17.5576 64.4351 18.5994 64.0859 19.5832C63.5955 20.3066 63.0298 20.9705 62.3994 21.5628C62.1039 21.8669 61.9037 22.258 61.8254 22.6842C61.7471 23.1104 61.7943 23.5515 61.9609 23.9488C62.4669 24.7795 63.6474 24.7619 64.5581 24.4614C66.1719 23.8093 67.6539 22.8439 68.926 21.6158C70.1099 21.0577 71.1761 20.2587 72.0629 19.2651Z" fill="#DBC7FF"/>
<path opacity="0.4" d="M69.5163 22.7116C68.0659 23.1004 67.1047 24.2846 67.3745 25.3628C67.6443 26.4409 69.061 26.9888 70.4776 26.6C71.8942 26.2112 72.8892 25.027 72.6194 23.9488C72.3486 23.3683 71.8773 22.9174 71.3011 22.6877C70.7248 22.4579 70.0868 22.4665 69.5163 22.7116Z" fill="#DBC7FF"/>
</g>
<path d="M92.7896 96.2198L94.8303 100.391L92.6716 102.547L86.6003 102.918L81.0012 99.9314L82.5022 96.0784L87.3423 97.6867L92.7896 96.2198Z" fill="#9B3B9C"/>
<path d="M81.8613 95.4421C81.8613 95.4421 85.6053 99.9845 93.4642 95.831" stroke="#111111" stroke-width="0.5" stroke-linecap="round" stroke-linejoin="round"/>
</g>
<defs>
<clipPath id="clip0_26_1754">
<rect width="264" height="246.4" fill="white"/>
</clipPath>
</defs>
</svg>
